<svg xmlns="http://www.w3.org/2000/svg" width="1024" height="1024" viewBox="0 0 1024 1024">
  <defs>
    <linearGradient id="g" x1="0" y1="0" x2="1" y2="1">
      <stop stop-color="#D7E8FF"/>
      <stop offset="1" stop-color="#F7EDD3"/>
    </linearGradient>
    <style>
      .s0 { fill: #ffffff } 
		.s1 { fill: #004a98 }
    </style>
  </defs>
  <rect width="1024" height="1024" rx="180" fill="url(#g)"/>
  <circle cx="512" cy="512" r="210" fill="#004A98" opacity=".1"/>
  <svg x="302" y="302" width="420" height="420" viewBox="127.5 78.5 280 280" overflow="visible" aria-label="Logo do Oratio">
    <g>
		<g>
		</g>
	</g>
	<g>
		<path fill-rule="evenodd" class="s0" d="m267.56 356.74c-76.5 0-138.33-61.9-138.33-138.47 0-76.57 61.83-138.47 138.33-138.47 76.5 0 138.33 61.9 138.33 138.47 0 76.57-61.83 138.47-138.33 138.47z"/>
		<g>
			<path class="s1" d="m267.83 78.61c-77.16 0-139.72 62.63-139.72 139.87 0 77.24 62.56 139.87 139.72 139.87 77.17 0 139.73-62.62 139.73-139.86 0-77.24-62.55-139.88-139.73-139.88zm-98.5 195.81c-0.12 0.25-0.36 0.92-0.61 1.67q-0.58-1-1.15-2.01 0.12-0.18 0.17-0.28c0.69-1.02 3.58-2.41 3.58-2.41 0.97-1.09 4.61-5.13 5.75-5.87 1.14-0.74 4.22-2.79 7-3.08 2.79-0.28 8.37-2.04 9.91-2.1 1.54-0.06 5.86-0.86 7.57-1.15 1.7-0.28 3.81-0.17 5.23-0.22 1.42-0.06 5.97 0.57 5.97 0.57 0 0-1.93 1.03-2.15 1.53-0.23 0.51-0.29 1.48-1.26 1.65-0.97 0.17-9.05-0.23-11.61 0.17-2.56 0.4-5.98 0.86-9.05 0.97-3.08 0.12-7.6-0.88-11.38 2.79-3.93 3.82-5.46 5.47-5.46 5.47 0 0-2.16 1.61-2.51 2.3zm191.89-14.61c-1.67-1.67-9-8.36-10.26-12.33-1.24-3.96-3.91-12.83-4.95-18.05-1.04-5.21-6.98-14.63-8.43-17.76-1.46-3.13-7.11-10.73-8.15-12.81-1.04-2.08-2.6-8.27-5.53-12.23-2.91-3.96-8.43-5.24-8.43-5.24 0 0 0.53-9.87 0.53-10.7 0-0.84-0.7-3.2-0.98-4.04-0.27-0.83 1.11-6.39 0.56-9.87-0.56-3.48-0.56-7.93-1.24-10.71-0.7-2.78-0.7-5.84-2.08-7.92-1.39-2.08-2.5-5.01-3.61-6.82-1.11-1.81-0.84-3.34-1.67-5.28-0.83-1.95-1.67-2.09-3.2-4.59-1.53-2.51 0.83 4.17 0.83 5.42 0 1.25-0.56 3.34-0.56 3.34 0 0-3.61-7.23-5.69-10.29-2.08-3.06-9.72-6.53-9.72-6.53 0 0 6.81 5.69 7.78 7.09 0.97 1.39-3.61-1.25-3.61-1.25 0 0 2.91 3.61 3.2 4.04 0.27 0.41-5-3.62-5.42-3.06-0.41 0.56 4.45 4.73 4.45 5.56 0 0.84-4.45-2.23-5.01-3.2-0.56-0.97-3.61-3.48-3.88-2.92-0.28 0.56 0.56 1.54 1.53 2.23 0.97 0.7 4.03 3.76 4.72 4.32 0.69 0.56 2.23 3.34 2.23 3.34 0 0-3.48-2.37-3.48-1.81 0 0.56 2.23 3.05 2.23 4.04 0 0.97-2.08 1.53-2.64 0.83-0.56-0.7-1.53-0.56-1.53-0.56 0 0 3.05 2.08 3.2 4.31 0.14 2.23-0.7 3.75-1.53 3.62-0.83-0.14-2.98-1.46-4.58-2.78-5.57-4.62-10.35-7.69-11.07-7.86-0.68-0.16-2.13-0.21-2.13-0.21 0 0 1.34 0.9 2.08 1.11 4.24 1.24 9.03 7.09 10.28 7.93 1.25 0.83 1.61 1.43 4.39 2.96 2.78 1.54 2.14 1.35 6.31 5.53 4.17 4.17 5.42 10.98 5.42 15.01 0 4.04-0.28 9.33 0.83 12.24 1.11 2.92 1.53 6.96 1.8 7.79 0.28 0.84 2.64 5.42 3.62 7.09 0.51 0.88 1.98 2.49 3.26 3.81-0.14 0.9-0.27 1.55-0.27 1.55 0 0 0.63 2.91-1.04 1.87-1.67-1.04-6.67-12.93-6.67-12.93 0 0 0.41 3.75 1.66 6.25 0.31 0.62 0.76 1.55 1.26 2.59 1.53 3.2 3.53 7.57 3.53 8.05 0 0.63-4.79 2.51-4.79 2.51l2.3 1.87c0 0-0.83 2.3-1.24 3.55-0.42 1.24-3.55 1.67-3.55 1.67 0 0 2.08 2.3 0.42 4.38-0.8 1-1.71 2.1-2.61 3.23-1.53-0.29-3.51-0.64-4.53-0.67-1.8-0.06-3.82 1.7-3.79 2.13 0.02 0.35 4.1-0.99 7.5-0.43q-1.06 1.33-1.99 2.61c-0.47 0.65-0.93 1.76-1.36 3.06-1.58-0.14-2.79-0.14-3.81-0.39-1.44-0.37-0.3-1.91-1.65-1.63-1.34 0.29-3.15 0.32-3.17 0.62-0.02 0.3 2.39 1.4 3.93 1.81 0.65 0.17 2.65 0.55 4.29 0.84-0.92 3.06-1.68 6.61-2.21 7.79-0.83 1.88-4.37 6.89-7.49 9.39-3.13 2.51-5.84 6.26-7.72 5.63-0.61-0.2-2.69-0.77-3.55-1.9-2.34-3.11-1.27-7.01-3.93-10.26-1.97-2.4-6.37-8.76-5.9-7.86 1.31 2.48 6.45 12.39 9.17 19 1.19 2.89 1.53 5.86 1.53 6.12 0 0.45-1.45 3.24-2.8 6-0.82-0.03-1.89-0.11-2.39-0.61-0.77-0.77-1.92-4.74-2.05-6.14-0.12-1.41-1.79-4.22-3.45-7.17-1.66-2.94-2.37-4.3-3.14-7.11-0.76-2.8-2.5-7.74-2.81-8.51-0.31-0.75-1.29-1.9-2.5-3.27-1.21-1.37-3.11-3.04-3.72-3.72-0.6-0.68-1.52-1.44-1.52-1.44 0 0-1.97-1.82-2.12-1.52-0.15 0.31 1.44 1.75 1.67 1.98 0.23 0.23 1.07 1.2 1.37 1.57 0.95 1.16-0.23 1.24-0.23 1.24 0 0-0.97-0.72-1.37-0.94-0.52-0.3-1.47-0.92-1.98-1.3-0.49-0.37-1.55-1.21-1.63-1.55-0.08-0.35-0.38 0.08-0.12 0.57 0.27 0.49 1.11 1.76 1.94 2.54 0.54 0.51 0.93 1.25 2.12 2.35 1.3 1.23 2.38 1.94 3.68 3.79 0.42 0.6 0.99 1.59 1.21 3.05 0.14 0.91-0.03 2.51-0.19 2.51-0.15 0-1.59-1.37-1.87-1.75-0.26-0.38-1.04-0.98-1.58-1.66-0.63-0.77-1.38-1.65-1.79-2.18-0.42-0.53-1.14-1.59-1.89-2.13-0.76-0.53-2.01-1.21-2.54-1.82-0.53-0.61-1.77-1.89-1.7-2.5 0.05-0.55 0.1-1.54 0.11-2.36q0.06-0.38 0-0.77 0-0.34-0.02-0.5c0.2-0.28 0.56-0.68 0.9-0.73 0.54-0.08 1.38 0.67 1.38 0.67 0 0 0.43-0.82 0.74-0.94 0.3-0.11 1.36 0.48 1.36 0.48 0 0-0.78-0.99-1.41-0.97-0.62 0.03-0.8 0.69-0.8 0.69 0 0-0.65-0.46-1.27-0.52-0.49-0.04-0.89 0.96-1.03 1.38-0.48-1.11-1.91-1.17-2.55-0.6-0.91 0.81-1.82 2.72-2.46 3.74-0.55 0.87-1 1.58-1.47 2.35-0.22 0.36-0.54 0.85-0.85 1.46-1.09-1.05-9.22-9.01-10.53-10.96-1.39-2.08-6.94-8.2-6.94-8.2l-0.98-1.39-0.27-5.85-1.25 0.84c0.14 0.41 0.84 5.56 0.84 5.56 0 0 6.25 8.2 8.33 10.14 2.08 1.95 6.25 6.82 7.92 8.34 1.22 1.12 2.08 2.01 2.45 2.41q-0.12 0.29-0.22 0.62c-0.45 1.35-0.48 2.35-0.74 2.96-0.77 1.94-0.92 4.51-1.23 5.79-0.14 0.56-0.65 1.34-1.09 2.41-0.25 0.6-0.24 1.5-0.29 1.86-0.16-0.05-2.62-1.02-3.69-1.16-1.11-0.14-5.89-0.56-8.24-0.83-2.12-0.25-11.58-1.5-13.53-1.76 2.26 0.52 7.99 1.97 9.92 2.32 2.36 0.41 7.22 0.83 9.58 1.24 2.37 0.42 5.9 1.54 5.9 1.54l0.13-0.74c-0.07 0.51 0.13 1.62 0.11 1.97-0.07 1.47-0.22 4.49-0.29 6.16-0.01 0.35-0.25 1.45-0.94 1.23-0.19-0.01-3.31-0.34-4.38-0.49-1.1-0.15-7.24-0.92-7.24-0.92 0 0 1.81 1.41 2.42 1.79 0.6 0.38 0.83 1.1 0.83 1.1 0 0-2.99-0.61-4.28-0.64-1.29-0.04-3.42-0.53-5.69-0.61-2.28-0.08-5.17 1.18-6.41 1.33-1.26 0.15-2.1-0.2-3.37 0.03-1.3 0.23-4.26 0.92-5.32 0.95-1.06 0.03-2.09 0.23-4.02 0.61-1.93 0.37-3.19 0.64-3.6 0.64-0.41 0-0.49-0.31 0.03-0.95 0.53-0.64 0.87-1.18 1.59-2.21 0.72-1.03 0.99-2.24 1.75-2.47 0.75-0.23 3.79-0.92 6.18-0.46 2.39 0.46 4.55 0.49 6.64 0.69 2.09 0.19 5.01 0.75 6.41 0.8 1.41 0.03 5.05-0.57 5.05-0.57l-0.23-0.2c0 0-2.84 0.27-4.7 0.23-1.87-0.03-5.2-0.57-6.53-0.69-1.32-0.11-4.82-0.64-6.64-0.64-1.81 0-4.85-0.14-5.49 0-0.64 0.15-1.87 0.61-1.56-0.86 0.31-1.48 1.92-7.77 3.05-10.22 1.15-2.45 2.05-5.92 2.45-7.34 0.4-1.42 0.74-2.62 1.03-5.07 0.28-2.45 1.08-5.24 1.14-6.38 0.06-1.15 0.23-1.59 0.8-2.68 0.57-1.08 1.76-2.96 2.44-3.93 0.69-0.97 0.92-0.75 1.15-1.82 0.23-1.09 1.47-2.51 3.7-4.44 2.22-1.93 3.53-3.19 4.43-3.99 0.92-0.8 1.88-1.48 2.45-2.28 0.57-0.8 2.73-1.7 2.73-1.7 0 0-0.23-1.03 0.06-1.99 0.28-0.96 1.53-2.51 1.2-5.75-0.35-3.25-1.2-10.83-1.32-13.9-0.11-3.08-0.11-7.63 0.69-9.69 0.8-2.05 4.43-7.86 6.6-12.31 2.17-4.45 4.22-12.19 5.58-15.27 0.72-1.61 2.03-4.3 3.35-6.78 1.13-2.72 2.36-4.44 3.46-5.71 1.77-2.31 4.84-5.12 4.84-5.12 1.09-1.14 2.24-2.41 3.3-3.72 2.22-2.78 8.05-5.98 12.63-8.2 4.59-2.23 15.57-1.11 19.03-0.83 3.47 0.27 9.45 2.08 12.5 2.78 3.05 0.69 7.36 2.64 8.89 3.75 1.53 1.11 4.17 4.31 4.17 4.31 0 0-1.52-3.18-3.75-5.13-2.23-1.94-7.08-3.2-9.02-3.75-1.95-0.56-6.12-1.67-8.62-2.36-2.5-0.7-5.01-0.7-8.89-1.11-3.89-0.42-5.42 0.27-9.03 0-3.61-0.28-5.28 0.69-9.02 2.36-3.75 1.67-5.84 3.34-8.62 5.7-2.78 2.37-5.69 5.84-8.06 7.79-2.36 1.94-4.03 6.39-6.38 10.98-2.37 4.59-2.92 9.04-4.86 13.62-1.94 4.59-4.17 9.04-5.84 12.38-1.67 3.34-3.34 5.56-3.88 9.17-0.56 3.62-0.98 8.49-0.84 10.29 0.14 1.81 1.25 8.49 1.11 10.57-0.14 2.09-2.23 3.62-3.05 4.86-0.82 1.25-7.89 5.92-9.66 7.16-1.77 1.25-6.04 5.85-8.33 8.34-2.29 2.51-4.9 7.93-6.25 10.23-1.36 2.3-2.81 8.45-3.01 10.22-0.21 1.78-3.34 7.93-3.65 9.81-0.31 1.87-1.67 9.49-2.08 10.43-0.41 0.94-2.5 4.79-3.85 5.73-1.36 0.94-2.08 1.04-3.02 2.18-0.93 1.15-2.18 3.75-3.13 5.22-0.93 1.46-1.87 2.81-2.29 3.85-0.42 1.04-0.84 3.14-1.78 3.96-0.2 0.18-0.44 0.49-0.69 0.86-8.71-16.17-13.66-34.66-13.66-54.27 0-63.28 51.43-114.76 114.65-114.76 63.21 0 114.64 51.48 114.64 114.76 0 19.23-4.76 37.37-13.15 53.31-3.18-4.86-7.12-10.95-8.15-11.98zm-176.69-9.15c0.57-1.93 2.73-8.77 3.07-10.93 0.35-2.16 0.69-5.13 1.03-7.63 0.35-2.51 1.15-5.01 3.42-9.69 2.27-4.67 2.5-6.27 4.55-8.66 2.04-2.39 3.3-4.1 5.57-6.15 2.28-2.05 3.42-3.65 5.81-5.24 2.39-1.59 3.87-2.51 3.87-2.51l-1.59 2.85-2.61 2.16c0 0-2.96 1.94-3.53 2.85-0.57 0.92-0.35 2.28-1.15 3.88-0.8 1.59-2.84 3.65-3.87 5.81-1.03 2.16-3.07 4.32-4.22 7.97-1.14 3.65-2.5 4.78-3.07 6.84-0.57 2.05-1.03 4.11-2.16 7.4-1.14 3.31-2.39 6.96-2.96 8.66-0.57 1.71-1.14 3.54-1.37 4.9-0.23 1.37-1.82 1.93-1.82 1.93-1.01-0.33 0.46-2.51 1.03-4.44zm-13.07 29.9c0.82-0.49 2.75-1.53 3.74-2.05 1.2-0.63 3.98-0.97 4.66-1.03 0.68-0.05 3.64-2.9 5.8-4.49 2.16-1.59 4.05-3.42 6.89-4.84 2.85-1.43 3.88-2.39 5.29-2.9 1.42-0.52 4.95-0.63 4.95-0.63 0 0-4.27 2.21-6.2 3.76-1.94 1.53-5.29 3.82-7.8 6.1-2.5 2.27-5.23 5.18-6.43 6.66-1.06 1.33-4.58 5.33-5.81 6.69q-2.67-3.53-5.09-7.27zm13.93 7.3c-0.34 0.8-2.1 4.84-2.45 5.98 0 0-0.19 0.53-0.43 1.19q-1.38-1.54-2.7-3.12 0.07-0.06 0.07-0.06c0 0 4.72-5.93 5.98-7.92 1.25-1.99 3.07-4.66 5.52-6.95 2.44-2.28 6.37-5.81 7.16-6.73 0.8-0.91 1.7-1.7 2.05-1.47 0.34 0.23-1.26 2.1-2.34 3.36-1.08 1.26-5.74 5.7-7.45 8.03-1.72 2.33-5.08 6.89-5.41 7.69zm8.6 6.41l-2.27 3.37c0 0-0.97-4.22 0.06-7.46 1.02-3.25 3.69-9.43 5.4-12.16 1.7-2.73 3.42-5.56 4.05-6.4 0.62-0.86 2.1-2.17 2.1-2.17l0.57 0.23c0 0-3.47 4.9-4.49 7.86-1.03 2.96-2.62 5.53-3.02 7.01-0.4 1.48-1.93 5.3-2.16 6.21-0.24 0.9-0.57 2.89-0.24 3.51zm20.7-26.35c-0.58 0.97-1.54 3.48-2.16 5.3-0.63 1.82-1.53 5.01-1.88 6.04-0.34 1.03-1.2 5.64-1.03 7.91 0.18 2.28 0.18 6.96-0.22 8.15-0.4 1.18-1.38 4.83-1.82 5.52 0 0-1.76 6.51-2.33 8.78-0.15 0.58-0.32 2.33-0.52 4.61q-3.22-2.14-6.29-4.48c0.07-2.39 0.17-4.14 0.33-4.56 0.68-1.71 2.38-5.49 2.38-5.49 0 0 1.64-2.22 2.38-4.05 0.75-1.82 1.88-3.88 2.56-5.7 0.69-1.82 1.37-3.36 1.53-4.61 0.16-1.25-0.11-3.36-1.41-1.65-1.32 1.71-2.28 2.68-2.22 3.31 0.06 0.63-1.53 2.45-1.99 3.25-0.45 0.8-2.1 1.59-2.44 2.45-0.35 0.85-0.8 1.14-0.97 2.04-0.18 0.92-0.18 4.44-0.18 4.44 0 0-1 2.59-1.23 6.68-0.03 0.61-0.07 1.6-0.09 2.84q-0.93-0.74-1.84-1.49c0.02-2.22 0.55-13.22 0.55-13.22 0.17-1.99 1.08-4.16 1.59-5.98 0.5-1.82 1.93-5.41 2.73-7.01 0.8-1.59 0.74-2.62 1.87-4.56 1.14-1.93 3.7-6.21 4.72-7.45 1.02-1.25 3.07-2.85 3.47-2.68 0.4 0.17 0.35 1.99 1.03 2.1 0.69 0.12 2.05-0.4 2.9-1.08 0.86-0.69 2.51-1.54 3.54-2.28 1.02-0.74 3.24-1.65 3.24-1.65 0.12 0.35-2.1 1.59-2.5 1.88-0.4 0.29-3.13 1.67-3.7 2.64zm8.47 27.17c-0.11 0.85-0.68 0.45-1.58-0.58-0.92-1.02-2.28-1.59-3.88-4.78-1.59-3.19-1.64-6.04-0.97-10.7 0.69-4.67 0.92-7.17 2.62-10.14 1.7-2.96 4.76-4.67 6.03-4.32 0.63 0.17 0.34 0.74-0.06 1.14-0.4 0.4-1.47 1.88-2.04 3.2-0.57 1.31-0.97 5.35-1.14 7.62-0.18 2.28-0.06 5.01-0.12 6.16-0.06 1.14-0.97 1.87-0.91 4.22 0.06 2.33 1.08 4.72 1.81 5.69 0.76 0.95 0.36 1.64 0.24 2.49zm1.91 0.24c0 0 1.04-1.3 1.99-1.82 0.95-0.52 3.98-0.78 4.15-0.34 0.17 0.43-2.16 1.64-2.86 1.89-0.68 0.27-2.92 1.04-3.28 0.27zm66.7-4.97c-2.82-6.03-13.95 1.64-18.98-0.65-2.4-1.09-0.3-6.59-0.66-6.99-4.09-4.52-6.27-7.14-11.12-6.99-5.44 0.16-8.88-1.19-10.47-5.67-0.52-1.48-0.87-5.46-2-11.07-0.41-2.01 0.23-4.22-0.52-5.96-0.76-1.75-1.41-4.37-2.21-5.55q-1.2-1.76-2.73-3.88c-1.06-1.47-1.7-3.76-1.7-3.76 0 0-0.14 1.68-1.25 2.84-0.91 0.95-0.86 2.89-1.07 3.5-0.46 1.32-0.8 4.15-0.43 7.06 0.36 2.91 2.83 1.01 2.29 12.01-0.24 4.89-0.83 6.67-1.25 7.33-0.43 0.64-2.04 3.31-3.1 3.81-1.06 0.49-2.56 0.93-4.38 2.34-1.81 1.41-3.53 2.85-3.99 3.16q-0.08 0.07-0.19 0.13l-0.95 0.15c-0.17-0.15-0.33-0.43-0.48-0.92l-0.04 0.32c0 0-1.28-3.62-1.64-6.29-0.34-2.67-0.31-5.37 0.01-7.04 0.33-1.67 3.63-3.21 3.63-3.21 0.17-0.21 1.16-0.73 1.32-0.94 1.49-1.38 1.33-3.5 1.44-4.92 0.14-1.6 1.83-5.16 2.01-9.09 0.1-2.16 0.37-4.82 0.29-5.94-0.05-0.66-0.45-3.49-0.04-4.77 0.29-0.88 0.64-1.14 0.89-2.1 0.45-1.71 0.7-4.09 1.17-5.73 0.32-1.12 0.39-2.14 0.78-3.24 0.44-1.27 1.12-2.04 1.57-2.78 0.74-1.2 0.59-1.39 1.58-2.88 0.99-1.5 1.73-2.75 2.01-3.02 0.29-0.29 0.73-0.62 1.42-0.12 0.47 0.35 0.51 1.59 0.48 2.42-0.26 0.83-0.6 1.65-0.96 2.07 0.25 0.87-0.14 3.42-0.14 3.68 0 0.26 0.56 0.17 0.53-0.2-0.04-0.38-0.01-1.4 0.15-1.7 0.14-0.31 0.37-1.18 0.75-1.26 0.38-0.08 1.55 1.33 1.78 1.71 0.23 0.38 0.76 1.44 0.76 1.44 0 0 0.13 0.56 0.67 1.61 0.41 0.83 1.19 1.66 1.58 2.2 0.37 0.53 2.34 2.03 2.45 2.26 0.12 0.23 0.53 0.72 0.64 1.03 0.12 0.31 1.41 2.21 1.48 2.43 0.08 0.23 0.38 1.06 0.46 1.67 0.08 0.6 0.64 1.82 1.02 3.04 0.39 1.22 0.76 3.91 1.03 4.9 0.27 0.98 0.95 2.42 1.07 3.22 0.11 0.8 0.19 1.82-0.04 1.98-0.23 0.15-1.47-1.56-1.98-2.47-0.49-0.92-1.21-2.28-1.47-2.43-0.26-0.14-1.02-1.14-1.74-2-0.79-0.93-1.21-1.53-1.62-2.7-0.35-1.03-0.26-1.73-0.45-2.16-0.18-0.42-0.77-1.58-1.35-2.41-0.58-0.83-1.75-3.6-1.94-4.06-0.19-0.46-0.92-1.33-1.1-1.67-0.2-0.35-0.92-1.24-1.2-1.68-0.28-0.44-0.85-1.48-0.98-1.99-0.05-0.24-0.59-0.39-0.59-0.39 0 0-0.94 1.71-1.12 2.29-0.35 1.08-0.72 3.46-0.98 4.11-0.27 0.64-0.61 1.07-1.03 2.19-0.15 0.4-1.01 2.15-1.45 3.05-0.16 0.33-0.04 0.49-0.04 0.49 0 0 1.64-2.67 1.97-3.22 0.3-0.49 0.86-0.75 1.2-0.65 0.8 0.21 0.98 1.6 0.98 1.6 0 0 0.42-1.26 1.14-1.19 0.72 0.08 1.07 0.57 1.18 1.06 0.12 0.49 0.42 0.8 0.61 1.29 0.18 0.5 0.58 1.09 0.8 1.52 0.74 1.53 1.2 1.94 2.55 3.24 0.64 0.62 1.35 1.02 1.55 1.4 0.19 0.37 0.87 1.4 0.95 1.98 0.08 0.57 0.57 3.3 1.21 4.78 0.64 1.47 1.86 4.14 1.9 4.66 0.03 0.53 3.47 9.43 7.79 14.7 1.96 2.4 5.62 0.21 8.95-1.31 0.62-0.29 2.42-1.2 2.94-1.24 0.53-0.03 0.92-0.69 1.3-0.46 0.37 0.23-0.98 2.57-1.84 5.41-0.84 2.73 0.21 5.68 0.21 5.68 0 0 1.53-5.68 2.84-9.39 0.36-1.03 2.58-1.85 3.33-1.89 0.76-0.04 3.65 1.78 3.65 1.78 0 0 11.13 16.7 15.05 23.91-0.04 0.02-4.46 0.14-6.14-3.47zm-63.09 13.65c2.87-0.17 8.95-2.37 12.66-3.89 3.72-1.52 9.63-5.74 13.01-5.91 3.38-0.18 9.45 7.77 9.45 7.77 0 0-4.9-2.7-9.79-3.89-4.91-1.17-7.43 1.87-8.28 2.2-0.84 0.34-7.77 3.89-11.31 4.39-3.53 0.51-6.92-0.6-5.74-0.67zm9.4 10.46c1.24-1.11 7.36 2.37 10.28 3.89 2.93 1.52 5.14 2.51 7.36 3.62 2.23 1.11 8.19 1.8 11.12 1.24 2.91-0.56 4.72-3.89 5.41-5.42 0.7-1.53 2.37-6.12 2.64-7.5 0.28-1.4 1.95-1.67 1.67-0.84-0.27 0.84-1.39 4.69-2.23 7.75-0.83 3.05-3.78 6.41-9.3 7.27-3.67 0.57-10.97-0.14-15-1.11-4.03-0.97-13-7.95-11.95-8.9zm56.75 3.79c-0.18 0.51-1.12 3.32-2.14 4.96-1.01 1.62-4.21 4.5-7.8 5.79-3.59 1.29-11.23 2.49-15.47 2.92-4.24 0.42-14.27-1.23-13.3-1.98 1.14-0.89 7.82-0.46 10.98-0.32 3.17 0.14 5.57 0.14 7.97 0.22 2.41 0.08 8.34-1.54 11.25-2.52 2.91-0.98 3.75-2.88 4.27-3.87 0.53-0.98 2.53-3.55 2.64-4.37 0.12-0.81 1.79-1.34 1.6-0.83zm-67.63-27.93c0 0 0-0.34 0.42-0.77 0.42-0.42 2.63-1.27 4.08-2.13 1.44-0.84 3.05-3.22 3.05-3.22 0 0 0.17 0.59 0.42 1.44 0.26 0.85-2.37 2.55-3.39 3.15-1.02 0.59-4.58 2.04-4.58 1.53zm70.67-43.87c3.55-2.71 10-7.92 11.26-9.39 1.24-1.46 4.37-5.42 6.04-8.55 1.67-3.14 5.21-8.13 5.42-9.6 0.21-1.46 2.08-5.01 2.08-5.01l3.95-4.38c0 0-0.63 5.63-1.04 7.72-0.41 2.08-2.91 2.51-4.58 5.63-1.67 3.13-6.25 8.55-7.08 9.8-0.84 1.25-2.51 3.96-5.01 6.26-2.5 2.3-9.38 8.55-11.87 10.64-2.49 2.08-7.29 6.88-8.13 7.5-0.83 0.63-1.24-0.21-1.24-0.21 0 0 6.66-7.7 10.2-10.41zm51.47 13.35c-1.67 0-14.17-0.2-15.84 0.41-1.67 0.63-8.33-0.41-8.33-0.41 0 0 2.5 2.51 5.21 4.18 2.71 1.67 8.13 7.09 9.79 9.8 1.67 2.71 7.09 8.97 7.5 10.22 0.41 1.25 2.91 4.39 3.34 5.01 0.41 0.63-0.21 3.34-2.51 0.21-2.29-3.13-8.12-9.17-8.54-10.84-0.41-1.67-2.08-4.8-3.54-6.89-1.47-2.08-7.29-6.46-8.55-7.72-1.25-1.25-3.54-3.54-3.96-2.71-0.41 0.84 1.47 3.55 3.55 5.85 2.08 2.29 5.62 5.21 6.25 8.33 0.63 3.14 1.46 6.89 1.87 8.97 0.41 2.08 2.5 5.01 2.92 6.26 0.41 1.24 2.7 6.46 3.74 8.55 1.04 2.08-3.95-5.84-5-8.13-0.85-1.85-2.23-4.79-3.28-5.86 0.11 0.64 1.32 2.83 0.98 3.36 0.45 1.2-0.41 1.02-0.2 2.08 0.41 2.08 1.24 5.01 1.24 5.01 0 0-3.13-3.75-3.54-6.26-0.16-0.96 0.5-1.69 1-2.47-0.43-1.19-0.69-2.12-0.17-2.12q0.31 0.02 0.69 0.4c-0.15-0.87-1.02-1.91-3.4-3.32-6.67-3.96-4.58-8.14-6.25-9.39-1.66-1.25-6.04-3.34-7.29-5.63-1.24-2.3-1.87-3.55-3.95-4.59-2.08-1.04-2.71-0.2-5.21-1.04-2.5-0.83-7.08-0.63-8.12-0.83-1.04-0.21-6.68 0.62-7.5 1.24-0.83 0.63 0.41-2.71 3.75-3.13 3.33-0.41 10.83-1.25 13.76-0.41 2.91 0.83 6.04 1.67 6.87 1.24 0.84-0.41 4.59 1.04 4.38-0.2-0.2-1.25-4.38-1.47-4.79-2.08-0.41-0.63 1.04-2.72 1.04-4.59 0-1.88 0.63-3.55 0.63-3.55 0.21-1.46 3.75-5.01 3.34-7.09-0.41-2.08-0.63-4.17 0.41-6.46 1.04-2.3 3.54-3.34 4.38-5.01 0.83-1.67 2.29 0.41 1.24 1.88-1.04 1.46-3.34 4.58-3.34 5.84 0 1.25-1.04 8.56-2.08 8.97-1.03 0.41-3.13 6.05-3.13 6.05 0 0 4.59-6.68 6.46-8.97 1.87-2.3 4.58-5.22 5.01-7.09 0.41-1.88 0.62-6.68 0.62-6.68 0 0 1.88-0.63 2.08-3.34 0.21-2.71 0.41-6.26 2.3-6.05 1.87 0.2 3.34 5.84 2.08 7.3-1.25 1.46-1.67 4.58-2.3 5.84-0.63 1.25-2.91 3.34-3.54 4.59-0.63 1.24-5 5.01-5 6.46 0 1.45 0.2 3.13 0.83 4.59 0.63 1.46 4.79-0.21 6.67-0.84 1.88-0.63 5.21-2.08 6.46-3.96 1.24-1.87 5.42-5.62 5.42-5.62 0 0-0.42 3.75 0.41 4.79 0.82 1.04-5.42 2.92-6.25 3.96-0.84 1.04-1.25 3.54-0.63 4.58 0.63 1.04 2.91 3.14 5.41 3.75 2.51 0.63 5.42 0.21 6.68 1.05 1.27 0.84-0.4 2.51-2.07 2.51zm-45.83-41.08c0 0 1.46-4.18 2.08-6.26 0.62-2.08 9.38-9.8 9.38-9.8 0 0 0 0 1.24 2.3 1.25 2.3-1.67 4.58-3.13 6.68-1.45 2.07-9.57 7.08-9.57 7.08zm10.83 34.62c0.2 1.67-5.21 0-5.21 0 0 0 3.95-6.05 4.58-8.76 0.63-2.71 1.46 0.83 1.46 2.08 0 1.26-1.04 5.01-0.83 6.68zm-23.13 25.03c0.9 2.1 3.53 6.05 5.17 9.34-0.55-0.78-1.09-1.51-1.41-2.17-0.83-1.67-4.38-6.26-5.21-7.93-0.37-0.72-1.47-3.24-2.72-5.98 1.86 2.7 3.61 5.44 4.17 6.74zm6.05-5.63c-2.51-1.67-0.63-1.67-1.04-2.3-0.42-0.63-2.71-2.71-2.71-2.71 0 0 5 1.46 5.62 2.5 0.63 1.04 1.67 4.38 1.67 4.38 0 0 6.25 3.76 7.49 6.26 1.25 2.51 1.47 7.72 1.47 7.72 0.2 2.51 0.41 6.05-0.21 5.01-0.63-1.04-5.84-5.63-6.88-8.76-1.04-3.13-3.33-4.79-3.54-6.68-0.21-1.88 0.62-3.75-1.87-5.42zm12.22 52.64c-0.61-2.06-1.09-4.72-2.43-7.81-2.08-4.79-2.92-11.26-3.75-15.64-0.83-4.38-2.3-8.97-3.34-10.43-1.04-1.47-4.17-8.14-3.13-7.72 1.04 0.41 5.21 7.72 5.42 8.55 0.21 0.84 4.17 10.23 5.42 12.94 0.85 1.86 3.6 11.82 5.27 18.68q-1.71 0.75-3.46 1.43zm20.65-10.62c-0.42-2.09-0.79-3.97-0.79-5.31 0-2.5-5.41-14.81-6.45-17.52-1.04-2.71-6.25-10.01-7.72-12.51-1.46-2.51-6.25-8.97-8.12-10.23-1.88-1.24-7.29-3.54-7.29-3.54 0 0 6.25 0.83 8.12 2.3 1.88 1.46 5.42 6.88 8.33 10.63 2.92 3.75 5.84 8.97 7.92 12.52 2.08 3.54 2.5 7.29 3.54 9.39 1.04 2.08 2.92 9.17 3.34 11.05 0.15 0.68 0.37 1.46 0.57 2.26q-0.72 0.48-1.45 0.96zm-30.17-51.82c0 0 1.47-0.63 2.08-0.63 0.63 0 7.29 0.63 9.59 1.67 2.3 1.04 4.17 5.01 4.17 5.01 0 0-4.17-2.92-7.92-4.38-3.76-1.47-7.92-1.67-7.92-1.67zm-1.46-33.17l0.81-7.39c0.43 0.2 1.45-0.08 2.11 1.55 0.83 2.08-1.25 5.42-1.67 6.89-0.41 1.46-5.21 5.63-5.42 4.59-0.2-1.05 2.3-3.55 4.17-5.64zm-111.24 26.81c2.28-0.35 5.35-1.15 6.84-1.42 1.47-0.29 7.16-0.69 9.22-1.03 2.04-0.34 7.22-0.97 8.53-1.09 1.32-0.11 3.7 0.23 4.55 0.35 0.86 0.11 5.23 0.57 5.23 0.57 0 0-7.16-0.4-8.36 0.17-1.2 0.57-3.36 0.8-4.61 1.65-1.25 0.85-2.33 1.41-3.7 1.81-1.37 0.4-8.08 0.98-9.96 1.38-1.89 0.4-5.81 1.2-9.11 1.99-3.3 0.8-5.23 1.42-7.56 2.73-2.33 1.32-6.61 5.53-7.23 6.15l0.63-2.56c0 0 1.65-3.76 2.62-5.18 0.97-1.42 1.7-3.13 3.99-3.82 2.26-0.67 6.65-1.36 8.92-1.7z"/>
			<path class="s1" d="m206.82 237.43q0.02 0 0.36 0.04c-0.5-0.11-0.84-0.18-0.92-0.18z"/>
			<path class="s1" d="m222.94 242.44c0 0-7.65-1.25-9.73-1.67-2.08-0.41-6.67-0.56-6.67-0.56 0 0 3.47 1.24 5.42 1.8 1.95 0.57 9.03 1.26 10.98 0.43z"/>
			<path class="s1" d="m300.58 194.6c1.94 0.7 5.42 3.48 5.42 2.65 0-0.84-0.97-2.08-1.67-2.51-0.7-0.41-2.23-0.97-3.05-1.67-0.82-0.7-3.48-1.94-3.48-1.94 0 0 0.84 2.78 2.78 3.47z"/>
			<path class="s1" d="m261.79 141.37c-1.57-0.41-3.44-0.73-5.01-0.63-1.56 0.11-4.58 1.36-5.84 2.19-1.24 0.83-4.48 1.98-4.48 1.98 0 0-2.18 2.08-3.74 3.02-1.57 0.93-3.23 2.62-4.48 3.34-1.25 0.73-3.34 1.98-4.17 2.7-0.24 0.21-1.4 0.89-2.68 1.36 0 0 0.29-13.34 6.86-21.61 1.64-2.07 2.52-7.06 1.79-6.23-0.5 0.55-3.15 4.58-4.03 6.46-2.04 4.35-5.34 12.3-6.96 17-1.58 4.58-3.2 7.65-3.75 8.89-0.56 1.25-1.53 3.89-3.34 8.21-1.8 4.31-1.53 9.87-1.39 11.81 0.14 1.95 1.39 4.72 1.39 8.2 0 3.48-0.83 8.07-0.83 8.07 0 0 4.03-3.61 4.86-5.73 0.82-2.13 0.89-12.19 0.89-12.19 0.89 0.42 0.71 2.63 0.76 3.44 0.14 1.8 1.4 7.78 1.4 7.78 0.66-3.23-1.48-12.18-1.59-18.67-0.11-6.5 1.28-9.63 1.28-9.63l1.04-2.1c1.11 0.41 1.77 10.66 1.35 13.16-0.22 1.31-0.13 2.51-0.03 3.71-0.13 1.01-0.24 2.01-0.27 2.77-0.1 2.19 0 4.07 0.41 5.63q0.09 0.33 0.13 0.64 0.02 0.51 0.02 0.99 0 0.37 0 0.79c-0.07 0.68-0.22 1.31-0.37 1.83-0.3 1.15-0.73 3.24-1.56 5.85-0.83 2.61-2.4 4.69-3.54 5.52-0.85 0.62-2.24 1.11-2.93 1.34-0.38-0.09-0.64-0.17-0.64-0.17 0 0 0 0-0.97-0.56-0.97-0.56-2.08-1.81-2.08-1.81 0 0-0.11 3.77 1.25 4.18 1.37 0.4 1.92 0.05 2.81-0.43 0.18 0.08 2.13-0.11 2.89 0.14 0.83 0.28 1.8-0.7 2.08-0.14 0.27 0.56 2.5 4.86 3.47 6.4 0.97 1.53 4.72 6.12 5.84 7.36 1.11 1.25 3.05 2.09 2.5 0.98-0.56-1.11-7.49-9.88-8.05-10.71-0.56-0.83-1.11-4.72-1.11-4.72 0 0 1.24-0.7 2.23-0.98 0.97-0.27 4.17-0.69 6.67-1.67 2.5-0.97 10.42-1.67 10.42-1.67q0.01 0.01 0.2 0 0.01 0.03 0.03 0.06c1.04 1.98 1.63 3.82 2.33 5.78 0.7 1.94 2.23 5.98 2.71 7.16 0.49 1.18 0.34 4.24 0.77 5.84 0.41 1.6 1.39 4.38 1.87 5.49 0.49 1.11 4.76 3.88 4.76 3.88 0 0-3.09-5.2-3.45-6.25-0.34-1.04-1.8-3.88-1.8-3.88 0 0 2.29 2.08 2.84 2.78 0.56 0.69 1.6 0.69 3.05 0.56 1.47-0.14 6.95-0.07 8.89-0.14 1.95-0.07 2.64 0.7 3.27 0.63 0.63-0.07 1.88-1.95 2.57-2.99 0.7-1.04 1.95-4.1 1.95-4.1 0 0-1.4 0.27-3.06 0.13-1.66-0.13-4.37 1.32-7.35 1.4-2.99 0.07-3.96-0.63-4.38-0.9-0.41-0.28-5.21-0.07-5.98-0.21-0.76-0.14-1.39-1.04-1.66-1.6-0.28-0.56-1.88-4.11-2.44-5.98-0.5-1.72-3.45-6.63-4.11-7.87 0.16-0.15-0.01-1.06-0.07-1.28 0.14-0.47 0.38-1.03 0.63-1.63 0.49-1.11 1.06-2.64 1.69-4.1 0.63-1.47 2.34-2.98 2.34-2.98 0 0-1.53-2.16-3.51-4.93-1.97-2.77-4.43-9.24-4.64-13.68-0.2-4.42 2.81-6.72 4.12-7.19 1.3-0.47 2.55-0.73 3.95-0.78 1.41-0.06 3.13-0.78 3.65-1.25 0.52-0.47 1.14-0.96 1.42-1.93 0.28-0.97-0.27-1.74-0.34-2.5-0.07-0.77 1.11-0.98 0.7-1.54-0.41-0.56-0.63-1.31 0.14-1.53 0.76-0.21 2.5-0.34 4.24-0.27 1.73 0.06 6.11 1.39 8.19 1.46 2.08 0.07 5.48 0.7 6.59 0.83 1.11 0.14 0.41 0.28 1.94 0.56 1.54 0.28 0.74 0.79 0.04 0.79-0.69 0-2.77-0.29-4.84-0.4-2.06-0.1-5.53 0.6-6.81 0.9-1.28 0.29-2.76 1.97-3.36 2.96-0.59 0.98-0.89 4.34-1.18 6.82-0.3 2.47-0.99 7.9-1.19 9.19-0.2 1.28-1.35 1.99-2.28 1.98-0.7-0.01-1.85-0.79-2.35-1.17-0.16-0.11-0.32-0.11-0.32-0.11 0 0 1.62 1.36 2.17 1.59 0.3 0.11 0.44 0.56 0.49 0.77 0.2 0.7 0.37 0.3 0.48-0.04 0.09-0.26 0.77-0.41 1.08-0.43 0.42-0.04 0.52 0.13 0.63 0.45 0.1 0.31-0.02 0.6-0.12 0.92-0.1 0.32 0.12 0.79 0.18 1.04 0.07 0.24-0.24 0.27-0.56 0.27-0.32 0-0.59 0.38-0.86 0.46-0.28 0.07-1.04-0.03-1.4-0.17-0.34-0.14-0.78-0.49-1.26-0.66-0.5-0.19-1.7-0.38-2.22-0.59-0.53-0.2-1.64-0.47-1.84-0.65 0 0 0.04-0.58 0.01-0.76 0 0-0.33 0.26-0.57 0.64-0.24 0.37-0.24 0.45 0.03 0.56 0.28 0.1 0.56 0.04 0.97 0.13 0.55 0.13 1.9 0.68 2.33 0.91 0.35 0.18 0.96 0.34 1.53 0.59 0.86 0.37 1.28 1.08 1.67 1.11 0.38 0.04 0.84 0.1 1.28 0.04 0.46-0.07 1.21 0.45 1.15 0.73-0.07 0.27-0.87 0.49-1.6 0.52-0.74 0.04-1.12 0.11-1.91-0.03-1.64-0.28-0.73 0.8 0.17 1.07 0.9 0.28 1.53 0.24 2.36 0.5 0.84 0.24 1.65 0.4 3.09 1.46 1.28 0.94 1.06 1.99 0.46 3.09-0.5 0.87-2.56 1.75-4.38 2.18-1.63 0.4-3.09 0.31-3.09 0.31 0 0 2.98 1.11 3.62 1.08 1.06 0.18 3.66 0.2 4.54 0.2 1.04 0 1.88 0.74 3.85 1.98 1.98 1.25 2.46 0.84 3.14 0.84 0.67 0 0.62 3.85 0.62 3.85 0 0 2.08-2.08 3.44-1.98 1.36 0.11 1.57 1.57 2.08 2.92 0.22 0.57 1 1.3 1.82 1.97 0.56 0.85 1.12 1.41 1.12 1.41 0 0 1.16-1.34 3.44-2.12 1.37-0.3 2.33-0.16 2.43-0.15 0.97 0.14 3.15-0.23 4.81 0.06 0.69 0.11-1.06-1.27-1.44-1.58-1.07-0.87-1.2-1.83-0.65-2.92 0.76-0.46 1.53-0.79 1.53-0.79 0 0 0.76-0.63 1.4-1.27 1.17-0.19 2.29-0.15 2.1-0.34-0.24-0.24-1.05-1.53-1.59-2.91-0.15-1.09-0.31-2.32-0.38-2.84l-0.05 0.06c0.05-1.17 0.25-2.67 0.44-3.84q0.44-0.47 0.8-0.82c0.12 0.33 0.22 0.67 0.27 0.97 0.1 0.83 1.46 1.36 1.46 1.36 0 0-0.21-1.36-0.94-2.4q-0.14-0.21-0.24-0.41 0.05-0.04 0.08-0.06c0.32-0.22 0.06-1.93-0.26-3.41q0-0.04 0.01-0.08c0.21-1.57-1.04-5.01-0.94-5.63 0.11-0.63 2.71 1.47 2.71 1.47 0 0-1.77-2.4-2.5-3.55-0.73-1.14-2.3-5.84-3.13-7.92-0.84-2.09-1.14-10.23-1.77-10.54-0.63-0.31-0.53 1.04-0.41 1.36 0.11 0.32-1.98-1.56-3.14-2.81-1.14-1.25-3.54-4.79-3.54-4.79 0 0 2.92 0.93 1.88-0.11-1.04-1.04-3.34-1.24-4.28-1.24-0.93 0-5.52-0.84-8.54-1.78-3.02-0.93-4.69-1.24-6.26-1.56-1.48-0.33-4.51-1.38-6.06-1.79zm-19.38 52.35c-0.83 0.72-6.61 3.37-7.06 2.74 1.12-0.43 2.62-1.08 3.42-1.72 1.4-1.11 1.81-2.08 1.95-2.5 0.13-0.41 0.01-2.54-0.97-3.34-0.99-0.8-2.9 0.31-3.99-0.85-1.1-1.15-3.08-4.99-2.96-6.67 0.28-4.09 1.94-6.12 2.08-6.95 0.13-0.84-0.54-2.48-1.09-4.13-0.6-1.81-1.22-4-2.17-8.93-0.61-3.15-0.19-4.74-0.19-4.74 0.89 0.41 1.23 1.51 1.78 2.35 0.94 1.4 2.75 2.71 2.12 3.23-0.62 0.53-2.42-1.34-2.42-1.34 0 0 1.81 3.94 2.3 5.85 0.48 1.91 0.41 6.15 0.94 7.3 0.52 1.14 1.24-1.78 1.87 0.2 0.63 1.98 0.94 7.3 1.46 9.28 0.53 1.98 1.77 5.01 2.71 6.68 0.94 1.66 1.05 2.81 0.22 3.54zm32.68-35.79c0.8-0.32 2.17-0.6 2.79-0.61 0.89-0.04 2.48 0.25 2.85 0.8 0.19 0.27-0.31 0.88-0.52 1.2-0.22 0.32-0.89 0.63-1.04 1.2-0.16 0.61 0.1 1.04 0.41 1.25 0.31 0.2-1.17 0.2-1.59 0.2-0.49 0-1.2-0.18-1.71-0.36-0.62-0.22-1.61-0.42-1.9-1.43-0.09-0.3-0.1-1.93 0.71-2.25zm5.55 26.72c-2.75 2.91-6.89 5.17-10 6.35-1.71 0.65-4.06 1-5.46 0.86 1.02-0.06 2.66-0.69 3.95-1.45 1.24-0.74 3.36-2.07 4.78-3.03 1.81-1.23 3.9-3.05 7.75-6.3 3.47-2.9 0.91 1.55-1.02 3.57zm2.78-17.75c-0.28 0.56-0.97 2.3-1.46 3.14-0.5 0.83-1.81 3.05-2.58 3.88-0.76 0.84-4.03 2.72-4.78 2.09-0.77-0.63-0.97-2.78-1.47-5.29-0.49-2.5 0.63-4.94 0.91-5.42 0.27-0.49 0.34-2.23 0.34-2.23 0.15-0.53 0.24-0.97 0.77-0.85 0.44 0.11 0.99 0.47 0.99 0.47 0 0.49 0.67 0.95 1.22 1.11 0.55 0.16 0.84 0.01 1.2-0.09 0 0 0.63-0.06 0.86 0.39 0.24 0.46-0.88 0.48-1.43 0.45-0.55-0.03-1.38-0.12-1.38-0.12 0 0 0.63 0.49 1.11 0.66 0.49 0.18 1 0.46 1.73 0.57 0.73 0.1 1.84 0 2.88-0.04 1.05-0.04 1.36 0.72 1.09 1.28z"/>
		</g>
		<g>
			<g>
				<g>
					<path class="s0" d="m146.34 190.62q0.03-0.14 0.17-0.09c0.58 0.11 1.28 0.11 2.22-0.31 1.01-0.43 1.73-1.44 2-2.52 0.3-1.17 0.13-2.97-1.33-3.34-1.61-0.42-2.37 0.35-3.66 2.46-0.39 0.64-1.25 1.93-2.29 2.76-0.75 0.6-1.71 0.71-2.79 0.44-0.98-0.25-1.66-0.94-2.06-2.15-0.38-1.02-0.38-2.04-0.05-3.29 0.37-1.42 0.87-2.21 1.12-2.6 0.13-0.2 0.13-0.33 0.07-0.47l-0.16-0.34q-0.07-0.15-0.02-0.34 0.05-0.18 0.32-0.1c0.28 0.07 2.82 0.37 3 0.41q0.1 0.03 0.09 0.16v0.37q0.01 0.15-0.16 0.19c-0.55 0.09-1.34 0.25-2.2 0.86-0.64 0.44-1.07 1.06-1.32 2.06-0.44 1.73 0.51 2.71 1.14 2.88 0.6 0.15 1.15 0.21 1.74-0.19 0.61-0.45 1.34-1.55 1.77-2.36 0.64-1.17 1.26-2.11 2.17-2.76 0.78-0.53 1.62-0.73 2.79-0.43 2.14 0.55 3.45 2.73 2.71 5.58-0.46 1.77-1.04 2.72-1.79 3.46-0.21 0.21-0.31 0.33-0.35 0.46-0.03 0.13 0.08 0.26 0.23 0.43 0.14 0.17 0.16 0.27 0.12 0.44q-0.08 0.26-0.35 0.19c-0.19-0.11-2.96-1.14-3.16-1.24-0.1-0.04-0.13-0.08-0.1-0.17z"/>
					<path class="s0" d="m150.32 171.82c0.17 0.07 4.07 1.53 4.25 1.6 0.54 0.21 0.74-0.09 0.93-0.59l0.34-0.87c0.03-0.08 0.1-0.15 0.18-0.13l0.42 0.16c0.11 0.04 0.11 0.14 0.06 0.26-0.09 0.26-0.47 1.07-1.23 3.02-0.81 2.09-1.11 3.02-1.19 3.23q-0.07 0.17-0.18 0.13l-0.46-0.18q-0.1-0.02-0.04-0.2l0.32-0.84c0.16-0.41 0.31-0.89-0.11-1.14-0.22-0.14-3.85-1.59-4.76-1.94l-1.18-0.46c-0.4-0.16-3.46-1.29-3.69-1.36-0.44-0.09-0.68 0.04-0.91 0.63l-0.42 1.08q-0.06 0.18-0.18 0.13l-0.44-0.17q-0.12-0.06-0.06-0.18c0.09-0.25 0.57-1.31 1.36-3.35 0.77-2 0.98-2.67 1.09-2.97 0.05-0.13 0.14-0.14 0.22-0.1l0.39 0.15c0.1 0.03 0.1 0.13 0.07 0.21l-0.31 0.79c-0.18 0.46-0.17 0.85 0.15 0.97 0.17 0.07 3.87 1.56 4.07 1.64z"/>
					<path class="s0" d="m150.4 157l-0.3 0.55c-0.34 0.62-1.12 2.03-1.33 2.97-0.13 0.74 0.52 2.07 0.85 2.73 0.05 0.11 0.08 0.2-0.01 0.28l-0.33 0.33q-0.11 0.09-0.21-0.01c-0.49-0.53-2.22-2.35-2.41-2.54-0.2-0.16-0.2-0.31-0.16-0.39 0.07-0.11 0.17-0.16 0.33-0.23 0.54-0.22 0.83-0.56 1.15-1.1 0.6-1.04 1.12-1.83 2.17-3.74l0.58-1.05c1.18-2.15 1.57-3.01 2.02-3.92 0.19-0.38 0.38-1.25 0.36-1.64-0.01-0.2-0.04-0.32 0.03-0.43 0.07-0.12 0.15-0.13 0.37-0.06 0.31 0.11 2.49 0.81 3.33 1.08 0.11 0.03 0.12 0.09 0.11 0.16l-0.11 0.45c-0.02 0.09-0.09 0.11-0.22 0.11-0.6 0.03-2.02 0.19-2.63 0.57-0.56 0.41-1.56 2.15-1.93 2.86l-0.3 0.55 8.47 4.64c1.21 0.66 1.63 0.64 1.88 0.17l0.62-1.13q0.08-0.11 0.2-0.04l0.34 0.19c0.09 0.06 0.13 0.12 0.05 0.28-0.1 0.2-0.5 0.8-1.65 2.91-1.1 1.99-1.5 2.85-1.65 3.12-0.07 0.12-0.11 0.14-0.23 0.08l-0.36-0.2q-0.13-0.09-0.06-0.21l0.6-1.11c0.22-0.39 0.15-0.73-0.08-0.88-0.37-0.29-5.24-2.95-5.56-3.13z"/>
					<path class="s0" d="m172.96 131.71c2.18 2.17 4.11 3.84 4.53 4.2 0.68 0.6 1.17 0.72 1.74 0.16l0.41-0.42c0.13-0.12 0.18-0.08 0.24-0.01l0.3 0.3c0.08 0.08 0.1 0.1-0.03 0.23-0.16 0.16-1.14 1.06-1.73 1.67-0.41 0.41-1.44 1.52-1.6 1.68q-0.1 0.11-0.21-0.02l-0.32-0.32c-0.02-0.03-0.04-0.11 0.03-0.18l0.53-0.53c0.41-0.41 0.34-0.92-0.35-1.78-0.22-0.25-1.92-2.12-3.98-4.17l-1.63-1.62c-0.77-0.77-1.9-0.83-2.59-0.13l-0.5 0.5q-0.12 0.08-0.18 0l-0.34-0.34q-0.08-0.07 0.01-0.17c0.08-0.08 0.21-0.2 0.51-0.47 0.3-0.28 0.72-0.7 1.42-1.4q0.4-0.41 0.66-0.72 0.3-0.31 0.42-0.45c0.2-0.2 0.32-0.26 0.5-0.27 0.28-0.03 6.52 0.01 7.19 0.06 0.43-0.01 5.38 0 5.88 0l0.07-0.07-1.34-1.33c-1.13-1.12-1.77-1.76-2.45-2.36-0.51-0.46-1.84-1.65-2.13-1.79-0.43-0.19-0.95-0.02-1.33 0.36l-0.5 0.5c-0.09 0.09-0.15 0.05-0.21-0.02l-0.29-0.3c-0.08-0.08-0.11-0.1 0.02-0.23 0.19-0.19 0.73-0.66 1.79-1.74 0.95-0.95 1.28-1.37 1.48-1.55 0.12-0.13 0.2-0.11 0.25-0.07l0.3 0.3q0.12 0.12 0.03 0.21l-0.45 0.45c-0.32 0.32-0.26 0.67 0.16 1.2 0.8 0.95 2.8 3.26 4.11 4.56l3.39 3.38c0.18 0.18 0.37 0.35 0.17 0.55-0.22 0.21-0.51 0.31-0.74 0.33-0.25 0-1.9 0.06-3.83 0.09-2.2 0.01-4.64 0.03-5.04 0.02-0.4 0.05-5.48 0.01-5.85 0.03l-0.09 0.09z"/>
					<path class="s0" d="m196.05 107.54c2-0.07 4.15 0.59 5.59 2.61 0.77 1.08 1.23 2.5 0.98 4.21-0.32 2.01-1.22 4.03-3.94 5.99-1.09 0.78-2.84 1.62-4.8 1.96-1.74 0.28-4.25-0.35-5.77-2.48-0.63-0.88-1.33-2.5-0.95-4.84 0.46-2.74 2.2-4.44 3.76-5.55 1.35-0.97 2.95-1.81 5.13-1.9zm-6.75 5.27c-0.48 1.66 0.08 3.56 0.91 4.74 2.74 3.83 6.62 3.12 8.14 2.02 3.66-2.62 1.88-6.33 0.99-7.58-2.3-3.22-6.28-3.12-8.03-1.88-0.32 0.24-1.48 0.85-2.01 2.7z"/>
					<path class="s0" d="m220.87 100.13c-0.23-0.49-2.12-4.58-2.18-4.62l-0.08 0.03c-0.06 0.31-0.39 6.29-0.44 6.83-0.06 0.66-0.33 5.51-0.35 5.72-0.03 0.17-0.08 0.48-0.28 0.57q-0.19 0.09-0.45-0.15c-0.13-0.06-5.13-3.98-5.37-4.18-0.71-0.59-4.28-3.42-4.62-3.5 0.02 0.26 1.92 4.42 2.01 4.62 0.09 0.19 1.36 3 1.98 4.02 0.43 0.72 0.96 1.24 1.61 0.94l0.89-0.41c0.12-0.06 0.19-0.01 0.22 0.04l0.19 0.42c0.03 0.06 0.02 0.14-0.14 0.22-0.2 0.1-0.79 0.31-2.33 1.02-1.73 0.8-2.4 1.18-2.6 1.27-0.16 0.08-0.19 0.05-0.23-0.07l-0.2-0.41c-0.01-0.03-0.04-0.1 0.08-0.16l0.93-0.43c0.69-0.32 0.64-1.02 0.47-1.64-0.36-1.23-2.1-5.34-2.24-5.64l-1.3-2.81c-0.28-0.6-0.54-0.9-1.43-0.49l-0.89 0.41c-0.13 0.06-0.2 0.01-0.22-0.05l-0.21-0.44c-0.01-0.04 0-0.12 0.12-0.17 0.2-0.1 0.75-0.29 2.89-1.29 0.97-0.44 1.52-0.76 1.76-0.86 0.24-0.12 0.41-0.12 0.62 0.05 1.44 1.21 6.79 5.37 8.03 6.44 0.04-0.38 0.23-3.76 0.31-4.97 0.04-0.86 0.29-5.09 0.25-5.47-0.01-0.2 0.22-0.34 0.7-0.56 2.96-1.35 3.62-1.74 3.86-1.84q0.12-0.04 0.19 0.09l0.16 0.34q0.08 0.16-0.09 0.24l-0.89 0.41c-0.53 0.24-0.43 0.56-0.29 0.92 0.15 0.36 1.67 3.66 1.87 4.09l0.53 1.16c0.46 0.98 1.61 3.37 1.74 3.65 0.31 0.61 0.62 0.8 0.98 0.63l1.1-0.51c0.13-0.05 0.15 0.01 0.17 0.06l0.17 0.38c0.05 0.1 0.08 0.16-0.08 0.24-0.24 0.11-1.23 0.51-3.01 1.34-1.99 0.91-2.74 1.32-3.02 1.45-0.13 0.06-0.19 0.01-0.23-0.07l-0.17-0.38c-0.05-0.1-0.02-0.15 0.1-0.2l1.26-0.59c0.36-0.17 0.48-0.34 0.32-0.84-0.06-0.17-1.11-2.56-1.71-3.88z"/>
					<path class="s0" d="m235.6 96.59c0.26 0.94 0.75 2.66 0.83 2.98 0.24 0.91 0.72 1.16 1.21 1.14 0.37-0.02 0.91-0.08 1.72-0.3 0.39-0.1 1.37-0.39 1.79-0.53 0.38-0.14 1.15-0.53 1.61-1.06 0.32-0.37 1.22-1.85 1.53-2.38q0.09-0.16 0.22-0.13l0.39 0.09q0.11 0.03 0.09 0.16l-0.35 2.9c-0.03 0.18-0.15 0.32-0.42 0.39-0.1 0.03-0.58 0.14-1.93 0.46-1.36 0.36-3.58 0.9-7.18 1.84-0.8 0.21-1.38 0.38-1.83 0.49q-0.63 0.2-0.92 0.28-0.18 0.06-0.2-0.09l-0.12-0.43c-0.02-0.1 0.01-0.15 0.19-0.19l0.73-0.2c0.99-0.25 1.05-0.38 0.88-1.02l-1.08-4.18-0.44-1.72c-0.37-1.44-0.97-3.6-1.09-3.84-0.2-0.46-0.45-0.54-1.11-0.36l-0.82 0.21q-0.13 0.04-0.16-0.09l-0.11-0.46c-0.03-0.09-0.01-0.12 0.1-0.16 0.48-0.12 1.27-0.25 3.04-0.73l0.6-0.16c0.95-0.24 5.91-1.57 6.86-1.81 0.34-0.09 0.75-0.21 0.86-0.24q0.15-0.03 0.19 0.06c0.15 0.21 1.58 2.38 1.72 2.54q0.09 0.13-0.02 0.21l-0.35 0.24q-0.08 0.06-0.22-0.04c-0.11-0.08-2.29-1.24-2.88-1.35-0.5-0.09-1.15-0.17-1.76-0.03l-3.3 0.78 1.27 5.09c0.65-0.18 2.19-0.61 2.43-0.72 0.46-0.2 0.68-0.4 0.84-0.9 0.07-0.26 0.17-0.75 0.09-1.07-0.02-0.1 0.05-0.16 0.14-0.18l0.57-0.12q0.15-0.04 0.16 0.1c0.03 0.3 0.33 1.46 0.44 1.91 0.19 0.7 0.48 1.53 0.63 1.9 0.02 0.09-0.01 0.12-0.14 0.17l-0.45 0.2q-0.11 0.05-0.21-0.08c-0.16-0.26-0.41-0.61-0.57-0.79-0.28-0.3-0.75-0.45-1.24-0.36-0.8 0.13-1.84 0.37-2.53 0.54z"/>
					<path class="s0" d="m251.47 90.3c0.26 3.08 0.65 5.58 0.74 6.14 0.13 0.91 0.42 1.32 1.22 1.25l0.59-0.04c0.18-0.02 0.18 0.05 0.19 0.14l0.04 0.42c0.01 0.1 0.01 0.14-0.16 0.16-0.22 0.02-1.56 0.08-2.4 0.14-0.59 0.05-2.08 0.23-2.31 0.26q-0.14 0.02-0.15-0.15l-0.04-0.46c0-0.03 0.04-0.11 0.13-0.11l0.75-0.07c0.59-0.05 0.86-0.47 0.87-1.59 0-0.33-0.09-2.87-0.33-5.77l-0.19-2.3c-0.09-1.08-0.92-1.85-1.9-1.77l-0.71 0.06q-0.13-0.02-0.15-0.12l-0.04-0.49q-0.02-0.11 0.12-0.11c0.12-0.01 0.29-0.01 0.7-0.03 0.4-0.01 1.01-0.06 1.98-0.14q0.57-0.06 0.97-0.12 0.43-0.04 0.62-0.07c0.26-0.02 0.4 0.03 0.54 0.12 0.24 0.16 4.98 4.23 5.47 4.7 0.33 0.26 4.1 3.48 4.49 3.81l0.09-0.01-0.16-1.88c-0.14-1.59-0.22-2.49-0.33-3.4-0.11-0.68-0.35-2.45-0.48-2.74-0.2-0.43-0.7-0.63-1.24-0.59l-0.71 0.06c-0.13 0.01-0.13-0.06-0.14-0.15l-0.04-0.41c-0.01-0.1-0.01-0.15 0.16-0.16 0.26-0.02 0.98-0.03 2.49-0.16 1.34-0.11 1.87-0.22 2.13-0.24 0.18-0.01 0.23 0.06 0.23 0.1l0.03 0.42q0.01 0.16-0.11 0.19l-0.62 0.06c-0.45 0.03-0.64 0.34-0.65 1.01-0.01 1.24 0.03 4.29 0.18 6.15l0.41 4.77c0.03 0.25 0.05 0.5-0.23 0.52-0.3 0.03-0.59-0.09-0.77-0.23-0.2-0.16-1.49-1.17-2.99-2.4-1.69-1.42-3.56-2.97-3.85-3.24-0.33-0.22-4.19-3.53-4.48-3.76l-0.13 0.01z"/>
					<path class="s0" d="m286.85 95.04q0.13 0.01 0.1 0.17c-0.06 0.58-0.01 1.29 0.46 2.18 0.5 0.99 1.55 1.63 2.65 1.82 1.19 0.22 2.96-0.08 3.23-1.55 0.31-1.64-0.51-2.35-2.71-3.49-0.66-0.34-2.01-1.11-2.92-2.09-0.64-0.71-0.83-1.67-0.62-2.76 0.18-1 0.82-1.73 2-2.21 0.99-0.44 2-0.51 3.27-0.27 1.45 0.27 2.27 0.72 2.68 0.93 0.21 0.12 0.35 0.11 0.47 0.04l0.33-0.18q0.14-0.09 0.33-0.05 0.2 0.04 0.13 0.32c-0.06 0.29-0.17 2.85-0.19 3.02q-0.02 0.1-0.16 0.1l-0.37 0.03c-0.09 0-0.17-0.04-0.19-0.15-0.13-0.54-0.35-1.32-1.01-2.14-0.48-0.61-1.13-0.99-2.14-1.18-1.74-0.33-2.66 0.69-2.78 1.34-0.12 0.6-0.13 1.15 0.32 1.71 0.48 0.58 1.63 1.23 2.46 1.61 1.22 0.56 2.2 1.1 2.91 1.97 0.59 0.74 0.84 1.56 0.61 2.76-0.4 2.17-2.49 3.64-5.38 3.09-1.79-0.33-2.79-0.85-3.56-1.56-0.24-0.19-0.36-0.28-0.5-0.31-0.12-0.02-0.24 0.11-0.41 0.26-0.16 0.14-0.26 0.17-0.43 0.13q-0.26-0.06-0.21-0.33c0.08-0.2 0.93-3.04 1.01-3.25 0.04-0.1 0.07-0.13 0.16-0.11z"/>
					<path class="s0" d="m304.34 91.42c0.19-0.58 0.11-0.91-0.43-1.09l-0.97-0.34c-0.13-0.04-0.16-0.09-0.12-0.2l0.14-0.4c0.03-0.11 0.09-0.13 0.26-0.07 0.22 0.07 1.21 0.47 3.23 1.14 1.78 0.6 2.82 0.88 3.07 0.97q0.18 0.06 0.12 0.18l-0.15 0.43q-0.04 0.15-0.21 0.08l-0.89-0.3c-0.63-0.21-1.12-0.03-1.26 0.32-0.09 0.2-0.48 1.22-0.81 2.22l-0.72 2.13c-0.29 0.86-0.68 2.09-0.83 2.65-0.2 0.82-0.29 1.66 0.03 2.38 0.45 1.03 1.49 1.7 2.51 2.04 0.97 0.33 2.26 0.41 3.11 0.12 1.02-0.38 1.78-1.23 2.2-2.49l1.04-3.1c0.46-1.37 0.8-2.95 0.87-3.36 0.09-0.47-0.15-0.89-0.61-1.05l-0.77-0.26q-0.17-0.06-0.13-0.17l0.15-0.43q0.04-0.15 0.22-0.08c0.22 0.07 1.17 0.44 2.56 0.91 1.31 0.45 2 0.62 2.17 0.68 0.2 0.07 0.2 0.12 0.16 0.2l-0.11 0.4c-0.04 0.11-0.07 0.15-0.19 0.12l-0.76-0.25c-0.77-0.25-1.01 0.19-1.11 0.37-0.11 0.2-0.91 2.6-0.99 2.83-0.08 0.24-1.14 3.21-1.44 3.88-0.6 1.37-1.47 2.26-2.88 2.7-1.11 0.35-2.6 0.31-4.21-0.23-1.02-0.35-2.19-0.89-2.9-1.44-1.09-0.83-1.67-1.9-1.73-3.15-0.04-0.86 0.26-2.02 1.01-4.26z"/>
					<path class="s0" d="m324.09 98.8c0.28-0.55 0.26-0.88-0.26-1.15l-0.9-0.48q-0.17-0.08-0.08-0.23l0.2-0.37c0.04-0.09 0.1-0.1 0.26-0.02 0.19 0.1 1.12 0.65 3.02 1.64 1.65 0.87 2.62 1.33 2.86 1.46q0.17 0.08 0.11 0.19l-0.21 0.4q-0.05 0.14-0.23 0.05l-0.83-0.44c-0.6-0.31-1.1-0.2-1.29 0.12-0.13 0.18-0.67 1.12-1.16 2.06l-1.06 1.99c-0.42 0.8-1.01 1.95-1.23 2.48-0.34 0.76-0.56 1.59-0.36 2.35 0.29 1.09 1.21 1.91 2.16 2.42 0.9 0.48 2.16 0.76 3.05 0.62 1.08-0.22 1.96-0.94 2.57-2.12l1.52-2.89c0.68-1.29 1.26-2.78 1.4-3.18 0.16-0.45 0-0.91-0.44-1.14l-0.71-0.37q-0.16-0.09-0.1-0.2l0.21-0.4q0.05-0.13 0.23-0.04c0.19 0.1 1.07 0.62 2.37 1.31 1.23 0.64 1.89 0.93 2.04 1.02 0.18 0.09 0.17 0.15 0.12 0.23l-0.19 0.36c-0.05 0.1-0.09 0.14-0.2 0.08l-0.7-0.37c-0.71-0.38-1.03 0.03-1.16 0.19-0.14 0.17-1.32 2.43-1.43 2.63-0.11 0.23-1.62 3-2.04 3.6-0.81 1.26-1.81 2.01-3.28 2.21-1.16 0.17-2.62-0.1-4.12-0.89-0.94-0.5-2.02-1.22-2.64-1.88-0.93-0.98-1.34-2.13-1.19-3.37 0.09-0.85 0.57-1.96 1.67-4.06z"/>
					<path class="s0" d="m351.13 121.96c0.35-0.42 3.13-3.94 3.15-4.04l-0.07-0.05c-0.3 0.09-5.78 2.49-6.29 2.69-0.61 0.25-5.06 2.18-5.27 2.25-0.16 0.06-0.45 0.15-0.62 0.01q-0.16-0.13-0.08-0.48c0-0.14 1.24-6.37 1.31-6.69 0.21-0.9 1.12-5.37 1.05-5.7-0.23 0.15-3.08 3.71-3.22 3.88-0.14 0.17-2.07 2.57-2.7 3.58-0.44 0.71-0.66 1.42-0.11 1.86l0.76 0.61c0.11 0.08 0.1 0.17 0.06 0.21l-0.28 0.35c-0.05 0.06-0.13 0.09-0.27-0.02-0.17-0.14-0.63-0.57-1.95-1.63-1.5-1.19-2.13-1.62-2.31-1.76-0.14-0.11-0.11-0.13-0.03-0.24l0.28-0.35c0.02-0.02 0.07-0.08 0.17 0l0.8 0.64c0.6 0.47 1.19 0.11 1.67-0.32 0.95-0.87 3.83-4.28 4.02-4.54l1.93-2.43c0.42-0.51 0.58-0.89-0.2-1.5l-0.77-0.6c-0.1-0.08-0.09-0.17-0.05-0.21l0.3-0.39c0.03-0.02 0.11-0.05 0.21 0.03 0.17 0.13 0.59 0.53 2.45 2.01 0.83 0.66 1.36 1.01 1.56 1.18 0.21 0.17 0.29 0.32 0.23 0.57-0.43 1.83-1.73 8.5-2.13 10.08 0.37-0.13 3.47-1.49 4.59-1.97 0.78-0.34 4.68-2.03 4.99-2.24 0.16-0.11 0.4 0.03 0.81 0.36 2.54 2.04 3.18 2.46 3.38 2.62q0.1 0.1 0 0.21l-0.24 0.3c-0.07 0.08-0.15 0.11-0.25 0.03l-0.76-0.61c-0.46-0.36-0.7-0.13-0.95 0.15-0.26 0.3-2.52 3.15-2.81 3.51l-0.79 1c-0.68 0.86-2.29 2.95-2.48 3.19-0.41 0.55-0.44 0.9-0.12 1.16l0.95 0.74c0.11 0.08 0.06 0.14 0.03 0.18l-0.27 0.33c-0.07 0.08-0.11 0.14-0.25 0.04-0.2-0.17-1.02-0.88-2.55-2.1-1.71-1.36-2.41-1.84-2.65-2.03-0.1-0.08-0.09-0.17-0.03-0.24l0.26-0.33c0.07-0.08 0.13-0.09 0.23 0l1.09 0.85c0.32 0.26 0.52 0.28 0.9-0.09 0.12-0.12 1.78-2.15 2.68-3.28z"/>
					<path class="s0" d="m371.93 142.54c-2.58 1.68-4.62 3.21-5.06 3.56-0.73 0.52-0.96 0.99-0.52 1.67l0.32 0.49c0.11 0.15 0.04 0.19-0.03 0.24l-0.35 0.23c-0.1 0.05-0.13 0.08-0.22-0.07-0.13-0.18-0.8-1.34-1.27-2.05-0.32-0.49-1.19-1.73-1.31-1.92-0.05-0.08-0.05-0.14 0.06-0.21l0.38-0.25c0.04-0.02 0.12-0.02 0.16 0.06l0.41 0.64c0.32 0.49 0.83 0.53 1.81 0.02 0.28-0.16 2.49-1.43 4.91-3.01l1.93-1.25c0.92-0.6 1.2-1.69 0.67-2.51l-0.39-0.59q-0.05-0.12 0.03-0.19l0.41-0.26q0.09-0.06 0.16 0.06c0.06 0.09 0.14 0.25 0.35 0.59 0.2 0.35 0.52 0.85 1.06 1.67q0.31 0.48 0.56 0.8 0.24 0.35 0.35 0.52c0.15 0.23 0.17 0.36 0.16 0.54-0.03 0.28-1.39 6.38-1.57 7.03-0.07 0.42-1.14 5.26-1.24 5.75l0.05 0.08 1.57-1.03c1.34-0.87 2.11-1.36 2.84-1.9 0.55-0.41 2-1.45 2.19-1.71 0.28-0.37 0.23-0.92-0.07-1.37l-0.39-0.6c-0.06-0.11-0.01-0.15 0.07-0.2l0.36-0.23c0.09-0.06 0.12-0.08 0.21 0.07 0.15 0.22 0.5 0.85 1.32 2.12 0.73 1.12 1.06 1.55 1.21 1.76 0.1 0.15 0.06 0.23 0.01 0.26l-0.35 0.23q-0.14 0.08-0.23-0.02l-0.34-0.52c-0.24-0.38-0.61-0.4-1.22-0.09-1.09 0.58-3.77 2.04-5.31 3.06l-4.01 2.61c-0.22 0.14-0.42 0.27-0.57 0.06-0.17-0.27-0.2-0.56-0.17-0.79 0.05-0.25 0.34-1.88 0.71-3.77 0.45-2.16 0.93-4.55 1.04-4.93 0.04-0.4 1.14-5.36 1.21-5.73l-0.07-0.11z"/>
					<path class="s0" d="m390.54 170.42c-0.37 1.97-1.49 3.93-3.77 4.88-1.23 0.51-2.7 0.65-4.32 0.02-1.88-0.75-3.66-2.09-4.96-5.18-0.51-1.24-0.96-3.14-0.84-5.11 0.1-1.77 1.28-4.08 3.69-5.08 1.01-0.43 2.74-0.73 4.94 0.15 2.56 1.05 3.82 3.13 4.57 4.9 0.64 1.54 1.09 3.27 0.69 5.42zm-3.64-7.75c-1.51-0.85-3.49-0.72-4.82-0.16-4.35 1.82-4.51 5.76-3.79 7.49 1.74 4.15 5.76 3.25 7.17 2.66 3.64-1.54 4.44-5.45 3.61-7.43-0.15-0.36-0.48-1.62-2.17-2.56z"/>
					<path class="s0" d="m391.02 183.26c-3 0.68-5.44 1.43-5.97 1.6-0.87 0.25-1.24 0.61-1.06 1.38l0.12 0.56c0.04 0.18-0.03 0.2-0.11 0.21l-0.41 0.09c-0.11 0.02-0.14 0.04-0.19-0.14-0.04-0.21-0.29-1.53-0.48-2.35-0.12-0.56-0.52-2.04-0.57-2.26-0.02-0.09 0-0.13 0.13-0.17l0.44-0.1c0.04-0.01 0.12 0.02 0.14 0.1l0.17 0.75c0.13 0.56 0.58 0.77 1.69 0.64 0.32-0.05 2.82-0.49 5.66-1.14l2.24-0.51c1.06-0.24 1.7-1.17 1.48-2.13l-0.16-0.7q0-0.13 0.09-0.16l0.48-0.11q0.11-0.02 0.14 0.1c0.02 0.11 0.05 0.29 0.12 0.69 0.06 0.4 0.2 0.98 0.42 1.94q0.12 0.56 0.25 0.95 0.11 0.42 0.16 0.61c0.06 0.26 0.03 0.4-0.03 0.56-0.13 0.26-3.5 5.51-3.9 6.06-0.22 0.37-2.87 4.55-3.14 4.98l0.02 0.09 1.84-0.42c1.55-0.36 2.43-0.56 3.31-0.8 0.67-0.2 2.38-0.69 2.65-0.86 0.39-0.25 0.53-0.79 0.42-1.31l-0.16-0.69c-0.04-0.13 0.04-0.15 0.12-0.18l0.41-0.09c0.11-0.02 0.14-0.03 0.19 0.14 0.05 0.26 0.17 0.97 0.5 2.45 0.3 1.3 0.47 1.82 0.52 2.07 0.04 0.17-0.02 0.23-0.06 0.25l-0.42 0.09q-0.16 0.04-0.2-0.09l-0.14-0.61c-0.1-0.43-0.43-0.58-1.1-0.5-1.22 0.17-4.23 0.63-6.04 1.04l-4.66 1.08c-0.25 0.05-0.49 0.11-0.55-0.15-0.07-0.31 0.01-0.6 0.11-0.8 0.14-0.22 0.96-1.64 1.97-3.29 1.16-1.87 2.44-3.94 2.66-4.27 0.18-0.37 2.92-4.66 3.1-4.97l-0.04-0.12z"/>
				</g>
			</g>
			<g>
				<g>
					<path class="s0" d="m143.89 242.53c0.43-0.11 2.76-0.84 3-0.94 0.39-0.15 0.38-0.46 0.26-0.86l-0.29-1.11c-0.03-0.08-0.01-0.17 0.07-0.19l0.44-0.13c0.07-0.02 0.13 0.06 0.15 0.16 0.16 0.6 0.4 1.67 0.78 3.1 0.27 1.02 0.6 2.04 0.88 3.06 0.74 2.74 1.12 5.01 0.33 7.24-0.54 1.59-1.68 2.9-3.6 3.43-1.9 0.51-3.34 0.19-4.89-0.84-2.3-1.53-3.18-4.71-3.56-6.1-0.2-0.78-0.72-2.87-0.99-3.9-0.48-1.8-0.75-2.61-0.83-2.9q-0.05-0.12 0.11-0.16l0.41-0.11q0.1-0.05 0.15 0.14l0.32 1.18c0.11 0.42 0.3 0.59 0.59 0.57 0.36-0.03 4.13-0.97 5.39-1.31zm-0.94 3.02c-0.2 0.06-3.02 0.86-4.05 1.13-0.33 0.09-0.57 0.24-0.83 0.62-0.25 0.33-0.17 1.14 0.03 1.92 0.44 1.59 1.46 3.08 2.83 3.8 1.13 0.62 2.65 0.86 4.18 0.45 1.32-0.36 2.57-1.45 3.18-2.61 0.66-1.36 0.77-3.33 0.33-5-0.13-0.45-0.27-0.98-0.52-1.27-0.2-0.25-0.5-0.26-0.83-0.17-0.71 0.15-2.87 0.73-3.13 0.8z"/>
					<path class="s0" d="m148.24 265.91c-0.85 0.38-2.39 1.06-2.67 1.19-0.83 0.34-1 0.83-0.92 1.3 0.07 0.35 0.2 0.84 0.52 1.58 0.14 0.35 0.54 1.24 0.74 1.61 0.18 0.35 0.65 1.02 1.21 1.38 0.4 0.24 1.91 0.9 2.44 1.11 0.12 0.04 0.15 0.09 0.15 0.18l-0.02 0.38q-0.01 0.11-0.14 0.1l-2.77 0.06q-0.27 0.01-0.43-0.34c-0.04-0.1-0.2-0.53-0.69-1.75-0.52-1.23-1.34-3.24-2.7-6.52-0.3-0.72-0.54-1.24-0.71-1.65q-0.27-0.58-0.38-0.83-0.07-0.16 0.06-0.2l0.38-0.16c0.09-0.04 0.15-0.02 0.2 0.13l0.28 0.67c0.38 0.9 0.5 0.93 1.08 0.68l3.79-1.58 1.55-0.65c1.3-0.55 3.26-1.4 3.46-1.53 0.4-0.25 0.45-0.5 0.2-1.09l-0.31-0.74q-0.05-0.11 0.06-0.16l0.41-0.17c0.08-0.04 0.11-0.02 0.16 0.07 0.18 0.43 0.41 1.15 1.09 2.75l0.23 0.55c0.36 0.86 2.27 5.34 2.63 6.2 0.13 0.31 0.3 0.68 0.34 0.78 0.05 0.1 0.03 0.15-0.03 0.19-0.17 0.16-2.02 1.81-2.15 1.96q-0.11 0.12-0.19 0.01l-0.28-0.3q-0.07-0.07 0.01-0.2c0.07-0.12 0.86-2.34 0.88-2.9 0.03-0.49 0.02-1.1-0.2-1.65l-1.18-3-4.6 1.88c0.24 0.58 0.86 1.97 1 2.19 0.24 0.4 0.47 0.58 0.95 0.66 0.25 0.04 0.73 0.06 1.02-0.05 0.09-0.04 0.16 0.02 0.19 0.1l0.18 0.53q0.07 0.13-0.08 0.17c-0.27 0.07-1.31 0.5-1.72 0.67-0.64 0.27-1.36 0.67-1.7 0.85-0.08 0.03-0.12 0-0.18-0.12l-0.23-0.4q-0.08-0.09 0.04-0.2c0.22-0.18 0.51-0.47 0.66-0.64 0.24-0.31 0.31-0.78 0.16-1.21-0.23-0.74-0.59-1.69-0.84-2.31z"/>
					<path class="s0" d="m155.21 281.75c-0.89 0.51-2.55 1.51-2.75 1.67-0.27 0.23-0.46 0.51-0.3 0.8l0.52 0.92c0.07 0.11 0.04 0.17-0.02 0.2l-0.35 0.21q-0.15 0.09-0.25-0.13c-0.14-0.24-0.3-0.63-1.4-2.54-1.03-1.79-1.32-2.22-1.43-2.4-0.06-0.11-0.03-0.17 0.05-0.23l0.34-0.19q0.12-0.07 0.18 0.04l0.36 0.63c0.23 0.4 0.49 0.65 0.89 0.41 1.51-0.82 2.91-1.62 4.32-2.42l3.93-2.25c0.5-0.29 0.59-0.69 0.41-1.02l-0.41-0.72q-0.08-0.14 0.01-0.19l0.4-0.22q0.11-0.07 0.18 0.06c0.07 0.13 0.37 0.75 1.4 2.54 0.59 1.03 1.6 2.7 1.92 3.25 0.84 1.48 1.08 2.84 0.97 3.89-0.1 0.94-0.54 1.62-1.11 1.96-1.88 1.07-3.46 0.12-4.88-1.74l-0.05 0.03c0.14 0.6 0.06 1.09-0.06 1.5-0.12 0.36-0.87 2.3-0.96 2.55-0.09 0.2-0.76 2.14-0.81 2.54-0.06 0.49 0.2 1.03 0.47 1.46 0.06 0.12 0.03 0.18-0.03 0.21l-0.31 0.18q-0.14 0.09-0.22-0.05c-0.08-0.15-0.31-0.66-0.99-1.83-0.29-0.52-0.72-1.2-0.97-1.59 0.01-0.3 0.22-0.88 0.39-1.3 0.23-0.57 0.89-1.9 1.04-2.2 0.16-0.35 0.56-1.25 0.72-1.73 0.26-0.76 0.42-1.42-0.02-2.19-0.05-0.06-0.24-0.37-0.37-0.57zm1.36-0.74q0.16 0.41 0.34 0.73c1.65 2.87 3.87 2.38 4.55 1.98 0.69-0.4 1.13-1.11 1.21-1.77 0.11-0.94-0.21-1.88-0.74-2.79q-0.24-0.45-0.47-0.61c-0.16-0.1-0.38-0.08-0.56 0.02z"/>
					<path class="s0" d="m165.6 297.04c-0.73 0.59-2.05 1.64-2.29 1.82-0.71 0.54-0.75 1.05-0.56 1.49 0.15 0.31 0.4 0.75 0.89 1.39 0.23 0.31 0.85 1.06 1.13 1.38 0.27 0.28 0.88 0.82 1.52 1.03 0.45 0.13 2.07 0.38 2.64 0.45q0.17 0.02 0.2 0.15l0.07 0.38q0.02 0.1-0.12 0.14l-2.67 0.75q-0.25 0.08-0.49-0.22c-0.07-0.08-0.33-0.47-1.11-1.52-0.81-1.06-2.12-2.8-4.25-5.61-0.48-0.63-0.84-1.07-1.11-1.42q-0.41-0.48-0.58-0.71-0.13-0.14 0.01-0.22l0.33-0.25c0.08-0.06 0.14-0.05 0.24 0.08l0.43 0.57c0.6 0.78 0.72 0.78 1.24 0.39l3.25-2.48 1.34-1.02c1.12-0.86 2.79-2.18 2.96-2.37 0.32-0.35 0.3-0.6-0.08-1.11l-0.49-0.64q-0.08-0.1 0.02-0.17l0.36-0.27q0.09-0.09 0.17 0.02c0.28 0.37 0.68 1.02 1.75 2.39l0.35 0.47c0.56 0.74 3.54 4.6 4.1 5.34 0.21 0.28 0.46 0.58 0.53 0.66q0.09 0.12 0.02 0.2c-0.12 0.2-1.5 2.26-1.59 2.44q-0.08 0.13-0.19 0.06l-0.34-0.21q-0.1-0.06-0.05-0.21c0.03-0.13 0.24-2.47 0.13-3.02-0.11-0.48-0.28-1.07-0.62-1.55l-1.9-2.61-3.97 2.98c0.38 0.51 1.33 1.7 1.53 1.87 0.33 0.33 0.6 0.44 1.08 0.4 0.25-0.04 0.72-0.13 0.97-0.32 0.08-0.06 0.16-0.01 0.22 0.04l0.31 0.46c0.04 0.07 0.06 0.14-0.04 0.18-0.24 0.14-1.14 0.83-1.5 1.1-0.55 0.41-1.16 0.99-1.43 1.25-0.07 0.06-0.11 0.03-0.2-0.06l-0.33-0.33q-0.1-0.08-0.01-0.21c0.17-0.22 0.38-0.58 0.48-0.79 0.16-0.36 0.1-0.82-0.15-1.21-0.41-0.65-0.99-1.47-1.4-2.01z"/>
					<path class="s0" d="m181.69 317.21c0.01 0.05-0.03 0.08-0.1 0.15-0.13 0.01-2.75 1.43-3.16 1.67-0.38-0.4-4.65-4.75-6.18-6.28-1.35-1.35-1.92-1.86-2.11-2.04-0.11-0.11-0.09-0.15-0.01-0.23l0.29-0.27c0.07-0.07 0.1-0.09 0.18-0.01l0.6 0.59c0.53 0.54 0.8 0.46 0.96 0.3 0.21-0.22 3.32-3.2 4.05-3.92l0.69-0.69c0.77-0.78 2.04-2.09 2.21-2.33 0.29-0.35 0.36-0.53-0.03-0.92l-0.63-0.63c-0.09-0.09-0.04-0.19-0.01-0.23l0.29-0.27q0.09-0.11 0.21 0.02c0.15 0.15 0.65 0.72 2.03 2.11 1.61 1.62 2.27 2.2 2.4 2.33 0.11 0.11 0.1 0.19 0.03 0.26l-0.29 0.28c-0.04 0.04-0.12 0.07-0.25-0.06l-0.81-0.81c-0.44-0.45-0.63-0.39-0.96-0.06-0.17 0.17-2.06 1.93-2.91 2.79l-1.05 1.04c-0.22 0.22-2.85 2.85-3.32 3.43l0.84 0.84c0.83 0.83 1.9 1.92 2.57 2.46 0.93 0.74 3.35 0.24 4.02-0.01 0.11 0.01 0.16 0.01 0.23 0.12z"/>
					<path class="s0" d="m189.73 321.13c-0.1 0.14-2.55 3.25-2.66 3.4-0.35 0.43-0.13 0.7 0.27 1.02l0.7 0.56c0.07 0.05 0.11 0.13 0.06 0.19l-0.28 0.33q-0.1 0.11-0.25-0.02c-0.19-0.16-0.82-0.73-2.38-1.98-1.65-1.33-2.41-1.86-2.57-2q-0.15-0.11-0.05-0.21l0.28-0.36q0.06-0.09 0.2 0.02l0.66 0.53c0.33 0.26 0.72 0.52 1.07 0.21 0.19-0.16 2.54-3.04 3.12-3.76l0.76-0.94c0.26-0.32 2.16-2.77 2.28-2.95 0.21-0.36 0.15-0.63-0.31-0.99l-0.85-0.69q-0.15-0.11-0.06-0.19l0.27-0.36q0.08-0.1 0.17-0.01c0.2 0.16 1.03 0.89 2.64 2.18 1.59 1.27 2.15 1.66 2.38 1.85 0.1 0.08 0.09 0.16 0.03 0.22l-0.25 0.31c-0.07 0.08-0.15 0.06-0.21 0l-0.63-0.5c-0.37-0.29-0.71-0.4-0.92-0.14-0.1 0.14-2.5 3.07-2.64 3.23z"/>
					<path class="s0" d="m198.68 324.99c-1.51 2.5-2.61 4.66-2.84 5.14-0.41 0.76-0.4 1.25 0.25 1.64l0.47 0.28c0.15 0.1 0.12 0.15 0.07 0.22l-0.2 0.34c-0.06 0.1-0.07 0.12-0.22 0.04-0.18-0.12-1.25-0.81-1.93-1.23-0.47-0.28-1.74-0.98-1.91-1.08-0.07-0.05-0.09-0.09-0.03-0.2l0.21-0.36c0.03-0.04 0.09-0.07 0.16-0.03l0.62 0.37c0.47 0.29 0.93 0.12 1.55-0.73 0.19-0.25 1.53-2.25 2.95-4.62l1.12-1.88c0.53-0.88 0.32-1.93-0.48-2.41l-0.58-0.36q-0.1-0.08-0.05-0.17l0.24-0.4q0.06-0.09 0.16-0.02c0.09 0.06 0.23 0.16 0.55 0.37 0.32 0.2 0.81 0.5 1.61 0.98q0.48 0.27 0.81 0.45 0.36 0.2 0.52 0.28c0.22 0.13 0.3 0.24 0.35 0.4 0.09 0.25 1.48 6.03 1.59 6.66 0.11 0.39 1.22 4.95 1.34 5.42l0.07 0.05 0.92-1.54c0.78-1.3 1.22-2.03 1.64-2.8 0.29-0.58 1.09-2.07 1.15-2.38 0.08-0.43-0.19-0.88-0.63-1.14l-0.58-0.36c-0.12-0.07-0.07-0.12-0.04-0.19l0.21-0.34c0.06-0.1 0.07-0.12 0.22-0.04 0.21 0.13 0.77 0.53 2 1.27 1.08 0.65 1.55 0.87 1.77 1.01 0.15 0.09 0.15 0.17 0.11 0.21l-0.2 0.35q-0.09 0.14-0.2 0.08l-0.5-0.31c-0.37-0.22-0.69-0.09-1.06 0.42-0.7 0.95-2.37 3.32-3.27 4.83l-2.34 3.9c-0.13 0.21-0.26 0.41-0.47 0.29-0.25-0.15-0.4-0.4-0.48-0.61-0.06-0.24-0.49-1.74-0.96-3.51-0.5-2.04-1.09-4.27-1.17-4.65-0.12-0.35-1.25-5.05-1.36-5.39l-0.11-0.07z"/>
					<path class="s0" d="m227.79 335.87c0.91 1.65 0.96 3.34 0.43 4.79-0.64 1.7-2.15 2.95-3.68 3.43-1.55 0.49-2.71 0.6-4.14 0.43l-0.02 0.07c1.6 1.28 3.12 2.29 5.18 3.53 3.48 2.06 4.38 2.31 4.9 2.51 0.59 0.23 1.21 0.16 1.5 0.09 0.11-0.03 0.19 0 0.21 0.05l0.16 0.28c0.02 0.05 0 0.12-0.1 0.15-0.46 0.26-2.37 1-3.56 0.55-0.85-0.32-2.12-0.9-4.59-2.57-1.94-1.32-4.01-2.93-6.83-5.55-0.34-0.31-2.32-1.28-3.56-3.55-0.74-1.27-1.03-3.03-0.34-4.89 0.62-1.65 2.03-2.88 3.86-3.44 1.97-0.55 4.29-0.23 5.62 0.3 2.62 0.92 4.14 2.29 4.96 3.82zm-2.44 4.26c0.72-1.93 0.5-3.75-0.09-4.93-0.66-1.27-1.55-2.05-2.77-2.51-1.03-0.38-2.15-0.4-3.18-0.09-1.7 0.52-2.61 1.92-3.1 3.23-0.83 2.19-0.36 4.26 0.22 5.31 0.74 1.3 1.83 2.01 2.38 2.21 3.75 1.42 6.02-1.85 6.54-3.22z"/>
					<path class="s0" d="m235.41 337.86c0.11-0.57-0.01-0.88-0.54-0.97l-0.96-0.17q-0.18-0.02-0.14-0.18l0.07-0.39c0.02-0.1 0.07-0.13 0.23-0.1 0.2 0.03 1.2 0.27 3.2 0.64 1.74 0.32 2.75 0.44 3 0.49q0.18 0.03 0.15 0.15l-0.08 0.42c-0.02 0.1-0.07 0.13-0.2 0.1l-0.87-0.16c-0.63-0.11-1.06 0.13-1.15 0.47-0.05 0.2-0.28 1.21-0.47 2.2l-0.37 2.1c-0.16 0.85-0.36 2.06-0.41 2.61-0.08 0.79-0.06 1.6 0.34 2.23 0.57 0.9 1.64 1.38 2.64 1.57 0.96 0.17 2.18 0.08 2.93-0.31 0.92-0.5 1.51-1.41 1.73-2.64l0.56-3.06c0.25-1.35 0.35-2.87 0.37-3.28 0.02-0.46-0.27-0.81-0.72-0.9l-0.76-0.14q-0.18-0.04-0.15-0.15l0.08-0.42c0.03-0.11 0.07-0.13 0.2-0.11 0.2 0.04 1.15 0.27 2.52 0.52 1.29 0.24 1.97 0.31 2.14 0.33 0.18 0.04 0.19 0.09 0.18 0.17l-0.07 0.39c-0.02 0.1-0.04 0.15-0.14 0.13l-0.76-0.14c-0.75-0.14-0.91 0.32-0.99 0.5-0.08 0.2-0.52 2.57-0.55 2.79-0.05 0.24-0.62 3.18-0.82 3.85-0.38 1.36-1.08 2.32-2.35 2.93-0.99 0.48-2.4 0.65-3.97 0.35-1-0.18-2.19-0.54-2.93-0.95-1.13-0.63-1.83-1.56-2.04-2.72-0.16-0.8-0.04-1.93 0.36-4.15z"/>
					<path class="s0" d="m254.61 346.63c-0.19 0.38-1.36 2.79-1.5 3.24q-0.06 0.22-0.05 0.36c-0.01 0.23 0.32 0.43 0.74 0.46l0.89 0.04c0.17 0.01 0.21 0.05 0.21 0.1l-0.03 0.44c-0.01 0.1-0.05 0.17-0.18 0.16-0.3-0.01-1.18-0.11-2.66-0.19-1.57-0.1-2.04-0.06-2.33-0.08-0.13-0.02-0.13-0.12-0.12-0.23l0.03-0.34q0-0.14 0.13-0.12l0.63 0.03c0.6 0.04 0.98-0.18 1.4-0.69 0.22-0.3 1.92-3.31 2.62-4.72 0.18-0.33 2.08-3.95 2.32-4.39 0.06-0.17 0.2-0.47 0.08-0.58-0.05-0.06-0.11-0.16-0.11-0.22 0-0.07 0.05-0.14 0.22-0.16 0.68-0.1 1.87-0.55 2.13-0.74 0.14-0.09 0.22-0.16 0.33-0.16 0.13 0.01 0.2 0.21 0.24 0.32 0.32 1.08 1.76 5.03 2.08 6.15 0.44 1.37 1.62 4.64 1.88 5.12 0.34 0.61 0.89 0.85 1.31 0.87l0.68 0.04q0.18 0.01 0.16 0.12l-0.03 0.37c0 0.1-0.05 0.21-0.21 0.19-0.38-0.02-0.8-0.09-3.12-0.22-1.77-0.11-2.49-0.1-2.96-0.12-0.17-0.01-0.21-0.11-0.21-0.22l0.02-0.34q0-0.15 0.18-0.12l0.54 0.03c0.6 0.03 0.77-0.13 0.68-0.61-0.14-0.63-0.86-2.87-1.08-3.52zm4.72-0.43c-0.18-0.52-1.4-4.51-1.5-4.87q-0.09-0.31-0.2-0.32-0.18-0.01-0.28 0.21c-0.1 0.22-2.23 4.35-2.4 4.74z"/>
					<path class="s0" d="m271.35 347.91q0.12-0.02 0.14 0.12c0.07 0.55 0.27 1.19 0.91 1.91 0.69 0.79 1.81 1.15 2.86 1.08 1.14-0.07 2.71-0.75 2.63-2.16-0.09-1.58-1.01-2.05-3.28-2.61-0.69-0.17-2.12-0.57-3.17-1.27-0.75-0.52-1.13-1.35-1.2-2.4-0.05-0.96 0.37-1.79 1.35-2.5 0.81-0.63 1.73-0.92 2.95-0.99 1.39-0.08 2.25 0.15 2.68 0.26 0.22 0.06 0.35 0.01 0.45-0.08l0.26-0.24q0.11-0.11 0.29-0.11c0.12-0.01 0.17 0.09 0.18 0.26 0.01 0.27 0.49 2.66 0.5 2.84q0.01 0.09-0.12 0.12l-0.33 0.11c-0.08 0.02-0.17 0.01-0.22-0.1-0.24-0.47-0.62-1.13-1.42-1.75-0.57-0.44-1.26-0.65-2.24-0.59-1.69 0.09-2.3 1.23-2.26 1.87 0.04 0.59 0.15 1.1 0.68 1.51 0.57 0.42 1.78 0.77 2.64 0.92 1.24 0.24 2.27 0.53 3.11 1.17 0.71 0.55 1.14 1.24 1.2 2.4 0.12 2.09-1.47 3.91-4.26 4.07-1.73 0.1-2.76-0.15-3.63-0.62-0.26-0.12-0.39-0.18-0.52-0.18-0.12 0.01-0.2 0.15-0.32 0.33-0.11 0.18-0.19 0.22-0.36 0.23q-0.26 0.01-0.28-0.26c0.04-0.21 0.18-3.01 0.2-3.22 0.01-0.1 0.03-0.13 0.11-0.15z"/>
					<path class="s0" d="m312.62 340.91c0.05 0.02 0.06 0.05 0.1 0.15-0.06 0.12-0.07 3.1-0.07 3.59-0.54 0.13-6.4 1.79-8.47 2.39-1.83 0.52-2.55 0.79-2.79 0.86-0.16 0.04-0.17 0.01-0.2-0.11l-0.12-0.37c-0.02-0.11-0.03-0.14 0.08-0.18l0.81-0.24c0.74-0.2 0.79-0.48 0.72-0.69-0.09-0.3-1.2-4.47-1.48-5.45l-0.26-0.93c-0.31-1.06-0.86-2.8-0.98-3.06-0.16-0.42-0.29-0.56-0.82-0.41l-0.86 0.25c-0.12 0.03-0.19-0.06-0.2-0.1l-0.12-0.38q-0.05-0.14 0.13-0.18c0.21-0.06 0.95-0.22 2.82-0.77 2.2-0.63 3.04-0.93 3.2-0.98 0.16-0.05 0.22 0.01 0.25 0.09l0.12 0.37c0.02 0.07 0 0.15-0.16 0.2l-1.1 0.32c-0.6 0.17-0.64 0.37-0.51 0.81 0.07 0.23 0.69 2.74 1.04 3.89l0.41 1.42c0.09 0.3 1.12 3.86 1.4 4.56l1.15-0.33c1.14-0.33 2.6-0.75 3.39-1.07 1.1-0.46 1.83-2.83 1.93-3.54 0.06-0.09 0.09-0.14 0.23-0.14z"/>
					<path class="s0" d="m319.8 336.78c0.01 0.43 0.07 3.1 0.16 3.57q0.04 0.21 0.12 0.34c0.09 0.21 0.48 0.24 0.86 0.07l0.81-0.37c0.16-0.07 0.21-0.06 0.23-0.01l0.17 0.39q0.08 0.14-0.08 0.23c-0.27 0.12-1.09 0.43-2.45 1.04-1.43 0.64-1.83 0.88-2.1 1.01-0.12 0.05-0.16-0.05-0.21-0.15l-0.14-0.3q-0.06-0.13 0.06-0.18l0.58-0.27c0.54-0.24 0.79-0.61 0.92-1.25 0.07-0.37 0.19-3.82 0.17-5.4-0.01-0.38 0.03-4.48 0.04-4.97-0.03-0.17-0.04-0.51-0.2-0.55-0.08-0.02-0.18-0.09-0.21-0.13-0.02-0.06-0.02-0.15 0.13-0.24 0.56-0.4 1.42-1.35 1.55-1.65q0.09-0.22 0.22-0.29c0.11-0.05 0.27 0.11 0.35 0.19 0.79 0.82 3.87 3.66 4.67 4.5 1.01 1.02 3.55 3.39 4.02 3.69 0.58 0.37 1.17 0.34 1.56 0.17l0.62-0.28q0.16-0.08 0.21 0.05l0.14 0.33c0.05 0.09 0.05 0.21-0.11 0.27-0.34 0.16-0.75 0.29-2.88 1.24-1.62 0.73-2.26 1.08-2.68 1.26-0.16 0.07-0.24-0.01-0.28-0.1l-0.14-0.31q-0.07-0.14 0.11-0.2l0.5-0.23c0.54-0.24 0.63-0.47 0.32-0.84-0.41-0.49-2.08-2.16-2.57-2.65zm4-2.55c-0.4-0.36-3.32-3.36-3.58-3.62-0.16-0.15-0.24-0.23-0.32-0.2q-0.16 0.08-0.16 0.32c0.01 0.24 0.01 4.89 0.04 5.31z"/>
					<path class="s0" d="m333.9 326.66c-0.33-0.53-1.51-2.27-1.68-2.51-0.59-0.8-0.89-0.65-1.58-0.22l-0.57 0.37q-0.14 0.1-0.21-0.02l-0.22-0.34q-0.09-0.12 0.06-0.21c0.25-0.16 1.14-0.65 2.62-1.63 0.58-0.36 1.62-1.1 2.58-1.71 1.34-0.87 2.56-1.5 3.38-1.63 1.28-0.2 2.05 0.23 2.61 1.1 0.75 1.16 0.45 2.33-0.9 3.92l0.05 0.07c2.31-0.87 4.04-0.75 5.03 0.78 0.5 0.78 0.64 2.17 0.02 3.1-0.53 0.82-1.57 1.73-3.56 3.01-0.7 0.46-1.92 1.17-2.62 1.63-1.39 0.9-2.11 1.42-2.48 1.66q-0.12 0.07-0.2-0.03l-0.23-0.37q-0.05-0.11 0.06-0.18l0.77-0.49c0.53-0.35 0.55-0.6 0.31-1.09-0.19-0.37-1.39-2.31-2.15-3.49zm2.57-0.79c0.3-0.17 0.55-0.33 0.82-0.51 0.78-0.5 1.39-1.12 1.61-1.64 0.4-0.87 0.24-1.67-0.17-2.3-0.35-0.55-0.94-0.99-1.74-0.97-0.88 0.04-1.81 0.46-2.35 0.8-0.18 0.12-0.39 0.25-0.51 0.38-0.1 0.1-0.14 0.25-0.08 0.38 0.16 0.28 0.92 1.55 1.7 2.77zm2.16 3.36c0.88 1.36 1.63 1.67 2.76 0.94 1.39-0.9 2.32-2.26 1.19-4.03-0.76-1.19-1.95-1.49-3.16-1.16-0.83 0.21-1.59 0.66-2.2 1.05l-0.45 0.29 0.58 0.91z"/>
					<path class="s0" d="m351.4 316.45c0.11 0.14 2.67 3.15 2.78 3.3 0.36 0.42 0.66 0.26 1.06-0.07l0.68-0.57c0.07-0.06 0.15-0.08 0.21-0.02l0.27 0.34q0.09 0.12-0.08 0.24c-0.19 0.16-0.88 0.66-2.41 1.93-1.62 1.35-2.31 1.99-2.47 2.13-0.1 0.08-0.15 0.08-0.2 0.01l-0.3-0.36q-0.08-0.07 0.07-0.18l0.65-0.54c0.32-0.27 0.66-0.59 0.43-1-0.12-0.22-2.47-3.1-3.06-3.81l-0.76-0.93c-0.27-0.32-2.28-2.67-2.44-2.84-0.31-0.27-0.58-0.27-1.04 0.11l-0.84 0.71c-0.11 0.08-0.15 0.08-0.21 0.01l-0.29-0.34q-0.08-0.1 0.03-0.18c0.19-0.16 1.07-0.82 2.67-2.15 1.57-1.3 2.05-1.77 2.27-1.96q0.15-0.11 0.23 0.01l0.25 0.31c0.07 0.08 0.03 0.16-0.04 0.21l-0.62 0.52c-0.35 0.3-0.52 0.62-0.32 0.87 0.12 0.13 2.5 3.07 2.63 3.23z"/>
					<path class="s0" d="m359.67 309.94c0.17 0.39 1.27 2.83 1.54 3.23 0.07 0.13 0.17 0.22 0.24 0.27 0.16 0.15 0.54 0.04 0.82-0.27l0.61-0.65c0.11-0.13 0.17-0.14 0.21-0.09l0.32 0.29q0.13 0.11 0.01 0.24c-0.21 0.22-0.85 0.84-1.85 1.93-1.07 1.14-1.35 1.52-1.55 1.73-0.09 0.1-0.16 0.03-0.25-0.05l-0.24-0.22q-0.11-0.1-0.01-0.18l0.43-0.47c0.4-0.44 0.5-0.88 0.36-1.52-0.08-0.37-1.32-3.6-1.94-5.05-0.15-0.34-1.71-4.13-1.9-4.58-0.1-0.15-0.24-0.46-0.4-0.44-0.08 0.01-0.19-0.01-0.24-0.04-0.05-0.05-0.07-0.13 0.02-0.28 0.37-0.59 0.78-1.79 0.8-2.13q0.01-0.23 0.09-0.35c0.1-0.09 0.3-0.01 0.4 0.02 1.04 0.45 4.99 1.87 6.06 2.34 1.33 0.53 4.59 1.72 5.14 1.83 0.69 0.11 1.21-0.15 1.5-0.46l0.46-0.49c0.09-0.1 0.13-0.11 0.2-0.05l0.26 0.25c0.08 0.07 0.13 0.17 0.02 0.3-0.27 0.27-0.59 0.55-2.18 2.26-1.21 1.31-1.65 1.87-1.97 2.21-0.12 0.13-0.22 0.08-0.3 0.01l-0.25-0.23q-0.11-0.09 0.01-0.21l0.38-0.4c0.4-0.44 0.39-0.68-0.04-0.91-0.57-0.29-2.75-1.18-3.39-1.42zm2.7-3.91c-0.52-0.18-4.37-1.79-4.7-1.94-0.21-0.08-0.31-0.12-0.37-0.06q-0.13 0.14-0.02 0.36c0.1 0.21 1.91 4.49 2.1 4.87z"/>
					<path class="s0" d="m374.34 278.58l-0.27 0.53c-0.31 0.6-1.02 1.95-1.21 2.86-0.11 0.71 0.53 1.95 0.86 2.58 0.05 0.09 0.08 0.19 0 0.27l-0.29 0.32q-0.1 0.08-0.2 0c-0.48-0.5-2.16-2.19-2.34-2.37-0.19-0.15-0.19-0.3-0.16-0.37 0.06-0.11 0.16-0.16 0.31-0.22 0.5-0.21 0.78-0.54 1.06-1.07 0.56-1 1.03-1.75 1.99-3.59l0.53-1.02c1.07-2.07 1.42-2.88 1.83-3.76 0.18-0.37 0.34-1.19 0.31-1.56-0.01-0.19-0.03-0.31 0.03-0.42 0.05-0.12 0.13-0.12 0.34-0.06 0.3 0.1 2.38 0.72 3.19 0.95 0.1 0.03 0.11 0.08 0.1 0.15l-0.09 0.43c-0.02 0.08-0.09 0.1-0.21 0.11-0.56 0.03-1.89 0.23-2.48 0.59-0.51 0.4-1.43 2.07-1.78 2.75l-0.27 0.52 8.13 4.25c1.16 0.6 1.57 0.57 1.8 0.12l0.57-1.08c0.03-0.08 0.11-0.08 0.19-0.05l0.32 0.17c0.09 0.05 0.14 0.12 0.06 0.26-0.1 0.19-0.46 0.77-1.51 2.8-0.99 1.92-1.36 2.73-1.5 2.99q-0.07 0.17-0.21 0.08l-0.36-0.18q-0.12-0.07-0.05-0.2l0.56-1.07c0.19-0.38 0.12-0.7-0.1-0.84-0.36-0.26-5.04-2.7-5.33-2.86z"/>
					<path class="s0" d="m381.06 266.32c-0.55-0.19-0.87-0.13-1.05 0.39l-0.32 0.91c-0.05 0.12-0.09 0.15-0.21 0.11l-0.37-0.14c-0.11-0.03-0.12-0.09-0.06-0.24 0.07-0.19 0.46-1.14 1.13-3.05 0.59-1.69 0.88-2.66 0.97-2.9q0.06-0.17 0.17-0.11l0.4 0.15q0.15 0.04 0.07 0.2l-0.3 0.84c-0.21 0.59-0.04 1.06 0.29 1.2 0.18 0.09 1.14 0.47 2.09 0.81l2.01 0.71c0.81 0.29 1.97 0.67 2.5 0.82 0.77 0.21 1.57 0.31 2.27 0.01 0.98-0.41 1.62-1.39 1.96-2.35 0.32-0.92 0.43-2.14 0.17-2.95-0.34-0.98-1.14-1.71-2.33-2.13l-2.91-1.03c-1.3-0.46-2.78-0.8-3.18-0.88-0.44-0.09-0.84 0.13-1 0.56l-0.25 0.72q-0.07 0.16-0.18 0.11l-0.4-0.14q-0.14-0.05-0.06-0.21c0.06-0.19 0.44-1.1 0.91-2.41 0.43-1.24 0.62-1.9 0.67-2.06 0.07-0.18 0.12-0.18 0.21-0.15l0.38 0.14c0.1 0.03 0.13 0.07 0.1 0.17l-0.25 0.72c-0.25 0.72 0.17 0.96 0.33 1.06 0.18 0.12 2.44 0.92 2.66 0.99 0.23 0.08 3.04 1.12 3.66 1.43 1.29 0.59 2.12 1.43 2.52 2.78 0.32 1.05 0.27 2.47-0.27 3.99-0.34 0.96-0.88 2.07-1.41 2.73-0.8 1.02-1.82 1.56-3 1.59-0.81 0.02-1.91-0.27-4.04-1.03z"/>
					<path class="s0" d="m392.83 248.77c0.35 0.26 2.52 1.8 2.96 2.01 0.12 0.06 0.26 0.1 0.34 0.12 0.22 0.05 0.48-0.24 0.57-0.65l0.2-0.87c0.03-0.16 0.08-0.19 0.12-0.18l0.43 0.09q0.16 0.02 0.12 0.21c-0.07 0.28-0.31 1.14-0.63 2.59-0.34 1.53-0.39 2-0.45 2.29-0.03 0.12-0.13 0.1-0.26 0.08l-0.32-0.07q-0.14-0.03-0.1-0.15l0.14-0.62c0.12-0.58-0.02-1-0.46-1.48-0.25-0.28-2.95-2.44-4.21-3.38-0.31-0.21-3.56-2.7-3.95-3.01-0.16-0.08-0.43-0.27-0.56-0.17-0.07 0.05-0.18 0.09-0.23 0.08-0.06-0.01-0.12-0.07-0.12-0.24 0.01-0.68-0.24-1.94-0.39-2.23-0.07-0.15-0.13-0.24-0.1-0.34 0.02-0.13 0.25-0.16 0.35-0.18 1.12-0.14 5.25-0.92 6.4-1.04 1.42-0.21 4.83-0.83 5.36-1.02 0.65-0.24 0.97-0.73 1.06-1.16l0.15-0.66q0.03-0.18 0.16-0.14l0.36 0.08c0.1 0.02 0.19 0.09 0.16 0.25-0.08 0.38-0.23 0.78-0.74 3.06-0.38 1.74-0.49 2.45-0.59 2.9-0.03 0.16-0.15 0.19-0.25 0.16l-0.33-0.08c-0.11-0.02-0.13-0.07-0.11-0.19l0.12-0.54c0.12-0.58 0-0.78-0.48-0.75-0.64 0.03-2.97 0.37-3.66 0.48zm0.36-4.74c-0.54 0.1-4.68 0.65-5.04 0.7-0.22 0.03-0.33 0.06-0.36 0.14q-0.04 0.17 0.16 0.32c0.2 0.12 3.92 2.91 4.28 3.14z"/>
				</g>
			</g>
			<path fill-rule="evenodd" class="s0" d="m140.13 206.12l2.42 7.16 7.55 0.09-6.05 4.52 2.24 7.22-6.16-4.37-6.17 4.37 2.24-7.22-6.06-4.52 7.55-0.09z"/>
			<path fill-rule="evenodd" class="s0" d="m395.37 206.12l2.42 7.16 7.55 0.09-6.05 4.52 2.25 7.22-6.17-4.37-6.17 4.37 2.25-7.22-6.06-4.52 7.55-0.09z"/>
		</g>
	</g>
	<g>
	</g>
	<g>
	</g>
  </svg>
</svg>
