<?xml version="1.0" encoding="UTF-8"?>
<svg xmlns="http://www.w3.org/2000/svg" viewBox="0 0 24 24">
  <path d="M5.4160156 2.328125 13.296875 10.535156 15.626953 8.109375C11.611953 5.838375 6.3020156 2.834125 5.4160156 2.328125ZM3.140625 2.8476562C3.055625 3.0456562 3 3.2629063 3 3.5039062V20.591797C3 20.788797 3.044375 20.970625 3.109375 21.140625L11.910156 11.978516 3.140625 2.8476562ZM17.423828 9.1269531 14.683594 11.978516 17.402344 14.810547C19.071344 13.865547 20.226562 13.210937 20.226562 13.210938 20.725562 12.907937 21.005047 12.441594 20.998047 11.933594 20.991047 11.438594 20.702609 10.981938 20.224609 10.710938 20.159609 10.673937 19.031828 10.035953 17.423828 9.1269531ZM13.296875 13.423828 5.4746094 21.566406C6.8216094 20.800406 11.797469 17.982172 15.605469 15.826172L13.296875 13.423828Z"/>
</svg>
